<svg width="1727" height="1872" viewBox="0 0 1727 1872" fill="none" xmlns="http://www.w3.org/2000/svg">
<mask id="mask0_2_757" style="mask-type:alpha" maskUnits="userSpaceOnUse" x="0" y="0" width="1727" height="1872">
<rect width="1727" height="1872" fill="#25272A"/>
</mask>
<g mask="url(#mask0_2_757)">
<path d="M176.87 2317.89C176.87 2317.89 223.742 1968.7 358.858 1804.33C517.156 1611.76 781.754 1716.27 927.276 1513.88C1072.66 1311.67 852.725 1066.04 1021.83 883.212C1132.69 763.343 1398.93 702.645 1398.93 702.645" stroke="url(#paint0_linear_2_757)" stroke-opacity="0.25" stroke-width="1.5" stroke-linecap="round" stroke-linejoin="round"/>
<path d="M192.069 2292.96C192.069 2292.96 238.941 1943.77 374.057 1779.41C532.356 1586.83 796.953 1691.35 942.475 1488.95C1087.86 1286.75 867.924 1041.11 1037.03 858.285C1147.89 738.416 1414.13 677.717 1414.13 677.717" stroke="url(#paint1_linear_2_757)" stroke-opacity="0.25" stroke-width="1.5" stroke-linecap="round" stroke-linejoin="round"/>
<path d="M207.269 2268.03C207.269 2268.03 254.141 1918.85 389.257 1754.48C547.556 1561.91 812.153 1666.42 957.675 1464.02C1103.06 1261.82 883.124 1016.19 1052.23 833.356C1163.09 713.488 1429.33 652.789 1429.33 652.789" stroke="url(#paint2_linear_2_757)" stroke-opacity="0.25" stroke-width="1.5" stroke-linecap="round" stroke-linejoin="round"/>
<path d="M222.47 2243.1C222.47 2243.1 269.341 1893.92 404.457 1729.55C562.756 1536.98 827.353 1641.49 972.875 1439.09C1118.26 1236.89 898.324 991.256 1067.43 808.426C1178.29 688.558 1444.53 627.859 1444.53 627.859" stroke="url(#paint3_linear_2_757)" stroke-opacity="0.25" stroke-width="1.5" stroke-linecap="round" stroke-linejoin="round"/>
<path d="M237.671 2218.17C237.671 2218.17 284.542 1868.99 419.658 1704.62C577.957 1512.05 842.554 1616.56 988.077 1414.16C1133.46 1211.96 913.525 966.327 1082.63 783.498C1193.49 663.629 1459.73 602.93 1459.73 602.93" stroke="url(#paint4_linear_2_757)" stroke-opacity="0.25" stroke-width="1.5" stroke-linecap="round" stroke-linejoin="round"/>
<path d="M252.869 2193.24C252.869 2193.24 299.74 1844.06 434.856 1679.69C593.155 1487.12 857.753 1591.63 1003.27 1389.23C1148.66 1187.03 928.724 941.398 1097.82 758.568C1208.69 638.7 1474.93 578.001 1474.93 578.001" stroke="url(#paint5_linear_2_757)" stroke-opacity="0.25" stroke-width="1.5" stroke-linecap="round" stroke-linejoin="round"/>
<path d="M268.071 2168.32C268.071 2168.32 314.942 1819.13 450.058 1654.76C608.357 1462.19 872.955 1566.7 1018.48 1364.3C1163.86 1162.1 943.926 916.47 1113.03 733.64C1223.89 613.772 1490.13 553.073 1490.13 553.073" stroke="url(#paint6_linear_2_757)" stroke-opacity="0.25" stroke-width="1.5" stroke-linecap="round" stroke-linejoin="round"/>
<path d="M283.27 2143.38C283.27 2143.38 330.142 1794.2 465.258 1629.83C623.557 1437.26 888.154 1541.77 1033.68 1339.37C1179.06 1137.17 959.125 891.54 1128.23 708.71C1239.09 588.842 1505.33 528.143 1505.33 528.143" stroke="url(#paint7_linear_2_757)" stroke-opacity="0.25" stroke-width="1.5" stroke-linecap="round" stroke-linejoin="round"/>
<path d="M298.471 2118.46C298.471 2118.46 345.342 1769.27 480.458 1604.9C638.757 1412.33 903.354 1516.85 1048.88 1314.45C1194.26 1112.24 974.325 866.612 1143.43 683.783C1254.29 563.914 1520.53 503.216 1520.53 503.216" stroke="url(#paint8_linear_2_757)" stroke-opacity="0.25" stroke-width="1.5" stroke-linecap="round" stroke-linejoin="round"/>
<path d="M313.67 2093.53C313.67 2093.53 360.541 1744.34 495.657 1579.97C653.956 1387.4 918.553 1491.92 1064.08 1289.52C1209.46 1087.31 989.525 841.683 1158.63 658.853C1269.49 538.985 1535.73 478.286 1535.73 478.286" stroke="url(#paint9_linear_2_757)" stroke-opacity="0.25" stroke-width="1.5" stroke-linecap="round" stroke-linejoin="round"/>
<path d="M328.87 2068.6C328.87 2068.6 375.741 1719.41 510.857 1555.05C669.156 1362.47 933.754 1466.99 1079.28 1264.59C1224.66 1062.39 1004.72 816.754 1173.83 633.925C1284.69 514.056 1550.93 453.358 1550.93 453.358" stroke="url(#paint10_linear_2_757)" stroke-opacity="0.25" stroke-width="1.5" stroke-linecap="round" stroke-linejoin="round"/>
<path d="M344.07 2043.67C344.07 2043.67 390.942 1694.48 526.058 1530.12C684.357 1337.54 948.954 1442.06 1094.48 1239.66C1239.86 1037.46 1019.92 791.825 1189.03 608.995C1299.89 489.127 1566.13 428.428 1566.13 428.428" stroke="url(#paint11_linear_2_757)" stroke-opacity="0.25" stroke-width="1.5" stroke-linecap="round" stroke-linejoin="round"/>
<path d="M359.269 2018.74C359.269 2018.74 406.141 1669.56 541.257 1505.19C699.556 1312.62 964.153 1417.13 1109.67 1214.73C1255.06 1012.53 1035.12 766.895 1204.23 584.066C1315.09 464.197 1581.33 403.499 1581.33 403.499" stroke="url(#paint12_linear_2_757)" stroke-opacity="0.25" stroke-width="1.5" stroke-linecap="round" stroke-linejoin="round"/>
<path d="M374.469 1993.81C374.469 1993.81 421.34 1644.63 556.456 1480.26C714.755 1287.69 979.352 1392.2 1124.87 1189.8C1270.26 987.599 1050.32 741.968 1219.42 559.139C1330.29 439.27 1596.53 378.571 1596.53 378.571" stroke="url(#paint13_linear_2_757)" stroke-opacity="0.25" stroke-width="1.5" stroke-linecap="round" stroke-linejoin="round"/>
<path d="M389.669 1968.88C389.669 1968.88 436.54 1619.7 571.656 1455.33C729.955 1262.76 994.553 1367.27 1140.07 1164.87C1285.46 962.67 1065.52 717.039 1234.62 534.21C1345.49 414.341 1611.73 353.642 1611.73 353.642" stroke="url(#paint14_linear_2_757)" stroke-opacity="0.25" stroke-width="1.5" stroke-linecap="round" stroke-linejoin="round"/>
<path d="M404.871 1943.95C404.871 1943.95 451.742 1594.77 586.858 1430.4C745.157 1237.83 1009.75 1342.34 1155.28 1139.94C1300.66 937.74 1080.73 692.11 1249.83 509.28C1360.69 389.412 1626.93 328.713 1626.93 328.713" stroke="url(#paint15_linear_2_757)" stroke-opacity="0.25" stroke-width="1.5" stroke-linecap="round" stroke-linejoin="round"/>
<path d="M420.071 1919.03C420.071 1919.03 466.943 1569.84 602.059 1405.47C760.358 1212.9 1024.95 1317.41 1170.48 1115.02C1315.86 912.812 1095.93 667.181 1265.03 484.352C1375.89 364.483 1642.13 303.784 1642.13 303.784" stroke="url(#paint16_linear_2_757)" stroke-opacity="0.25" stroke-width="1.5" stroke-linecap="round" stroke-linejoin="round"/>
<path d="M435.271 1894.1C435.271 1894.1 482.142 1544.91 617.258 1380.54C775.557 1187.97 1040.15 1292.48 1185.68 1090.09C1331.06 887.882 1111.13 642.251 1280.23 459.422C1391.09 339.553 1657.33 278.855 1657.33 278.855" stroke="url(#paint17_linear_2_757)" stroke-opacity="0.25" stroke-width="1.5" stroke-linecap="round" stroke-linejoin="round"/>
<path d="M450.47 1869.17C450.47 1869.17 497.341 1519.98 632.457 1355.61C790.756 1163.04 1055.35 1267.56 1200.88 1065.16C1346.26 862.953 1126.32 617.322 1295.43 434.493C1406.29 314.624 1672.53 253.926 1672.53 253.926" stroke="url(#paint18_linear_2_757)" stroke-opacity="0.25" stroke-width="1.5" stroke-linecap="round" stroke-linejoin="round"/>
<path d="M465.671 1844.24C465.671 1844.24 512.542 1495.05 647.658 1330.69C805.957 1138.11 1070.55 1242.63 1216.08 1040.23C1361.46 838.026 1141.53 592.395 1310.63 409.565C1421.49 289.697 1687.73 228.998 1687.73 228.998" stroke="url(#paint19_linear_2_757)" stroke-opacity="0.25" stroke-width="1.5" stroke-linecap="round" stroke-linejoin="round"/>
<path d="M480.871 1819.31C480.871 1819.31 527.742 1470.13 662.858 1305.76C821.157 1113.19 1085.75 1217.7 1231.28 1015.3C1376.66 813.097 1156.73 567.466 1325.83 384.636C1436.69 264.768 1702.93 204.069 1702.93 204.069" stroke="url(#paint20_linear_2_757)" stroke-opacity="0.25" stroke-width="1.5" stroke-linecap="round" stroke-linejoin="round"/>
<path d="M496.069 1794.38C496.069 1794.38 542.941 1445.2 678.057 1280.83C836.356 1088.26 1100.95 1192.77 1246.47 990.37C1391.86 788.167 1171.92 542.536 1341.03 359.707C1451.89 239.838 1718.13 179.14 1718.13 179.14" stroke="url(#paint21_linear_2_757)" stroke-opacity="0.25" stroke-width="1.5" stroke-linecap="round" stroke-linejoin="round"/>
<path d="M511.27 1769.45C511.27 1769.45 558.142 1420.27 693.258 1255.9C851.557 1063.33 1116.15 1167.84 1261.68 965.442C1407.06 763.239 1187.12 517.608 1356.23 334.778C1467.09 214.91 1733.33 154.211 1733.33 154.211" stroke="url(#paint22_linear_2_757)" stroke-opacity="0.25" stroke-width="1.5" stroke-linecap="round" stroke-linejoin="round"/>
<path d="M526.47 1744.52C526.47 1744.52 573.341 1395.34 708.457 1230.97C866.756 1038.4 1131.35 1142.91 1276.88 940.512C1422.26 738.309 1202.32 492.678 1371.43 309.849C1482.29 189.98 1748.53 129.282 1748.53 129.282" stroke="url(#paint23_linear_2_757)" stroke-opacity="0.25" stroke-width="1.5" stroke-linecap="round" stroke-linejoin="round"/>
<path d="M541.671 1719.59C541.671 1719.59 588.542 1370.41 723.658 1206.04C881.957 1013.47 1146.55 1117.98 1292.08 915.583C1437.46 713.38 1217.53 467.749 1386.63 284.919C1497.49 165.051 1763.73 104.352 1763.73 104.352" stroke="url(#paint24_linear_2_757)" stroke-opacity="0.25" stroke-width="1.5" stroke-linecap="round" stroke-linejoin="round"/>
</g>
<defs>
<linearGradient id="paint0_linear_2_757" x1="600.136" y1="1335.02" x2="866.119" y2="1583.27" gradientUnits="userSpaceOnUse">
<stop stop-color="#CDCDCD"/>
<stop offset="1" stop-color="#CDCDCD" stop-opacity="0.78"/>
</linearGradient>
<linearGradient id="paint1_linear_2_757" x1="615.335" y1="1310.09" x2="881.318" y2="1558.34" gradientUnits="userSpaceOnUse">
<stop stop-color="#CDCDCD"/>
<stop offset="1" stop-color="#CDCDCD" stop-opacity="0.78"/>
</linearGradient>
<linearGradient id="paint2_linear_2_757" x1="630.535" y1="1285.17" x2="896.518" y2="1533.42" gradientUnits="userSpaceOnUse">
<stop stop-color="#CDCDCD"/>
<stop offset="1" stop-color="#CDCDCD" stop-opacity="0.78"/>
</linearGradient>
<linearGradient id="paint3_linear_2_757" x1="645.735" y1="1260.24" x2="911.719" y2="1508.49" gradientUnits="userSpaceOnUse">
<stop stop-color="#CDCDCD"/>
<stop offset="1" stop-color="#CDCDCD" stop-opacity="0.78"/>
</linearGradient>
<linearGradient id="paint4_linear_2_757" x1="660.937" y1="1235.31" x2="926.92" y2="1483.56" gradientUnits="userSpaceOnUse">
<stop stop-color="#CDCDCD"/>
<stop offset="1" stop-color="#CDCDCD" stop-opacity="0.78"/>
</linearGradient>
<linearGradient id="paint5_linear_2_757" x1="676.135" y1="1210.38" x2="942.118" y2="1458.63" gradientUnits="userSpaceOnUse">
<stop stop-color="#CDCDCD"/>
<stop offset="1" stop-color="#CDCDCD" stop-opacity="0.78"/>
</linearGradient>
<linearGradient id="paint6_linear_2_757" x1="691.337" y1="1185.45" x2="957.32" y2="1433.7" gradientUnits="userSpaceOnUse">
<stop stop-color="#CDCDCD"/>
<stop offset="1" stop-color="#CDCDCD" stop-opacity="0.78"/>
</linearGradient>
<linearGradient id="paint7_linear_2_757" x1="706.536" y1="1160.52" x2="972.519" y2="1408.77" gradientUnits="userSpaceOnUse">
<stop stop-color="#CDCDCD"/>
<stop offset="1" stop-color="#CDCDCD" stop-opacity="0.78"/>
</linearGradient>
<linearGradient id="paint8_linear_2_757" x1="721.736" y1="1135.59" x2="987.72" y2="1383.84" gradientUnits="userSpaceOnUse">
<stop stop-color="#CDCDCD"/>
<stop offset="1" stop-color="#CDCDCD" stop-opacity="0.78"/>
</linearGradient>
<linearGradient id="paint9_linear_2_757" x1="736.936" y1="1110.66" x2="1002.92" y2="1358.91" gradientUnits="userSpaceOnUse">
<stop stop-color="#CDCDCD"/>
<stop offset="1" stop-color="#CDCDCD" stop-opacity="0.78"/>
</linearGradient>
<linearGradient id="paint10_linear_2_757" x1="752.136" y1="1085.73" x2="1018.12" y2="1333.98" gradientUnits="userSpaceOnUse">
<stop stop-color="#CDCDCD"/>
<stop offset="1" stop-color="#CDCDCD" stop-opacity="0.78"/>
</linearGradient>
<linearGradient id="paint11_linear_2_757" x1="767.336" y1="1060.8" x2="1033.32" y2="1309.05" gradientUnits="userSpaceOnUse">
<stop stop-color="#CDCDCD"/>
<stop offset="1" stop-color="#CDCDCD" stop-opacity="0.78"/>
</linearGradient>
<linearGradient id="paint12_linear_2_757" x1="782.535" y1="1035.88" x2="1048.52" y2="1284.12" gradientUnits="userSpaceOnUse">
<stop stop-color="#CDCDCD"/>
<stop offset="1" stop-color="#CDCDCD" stop-opacity="0.78"/>
</linearGradient>
<linearGradient id="paint13_linear_2_757" x1="797.735" y1="1010.95" x2="1063.72" y2="1259.2" gradientUnits="userSpaceOnUse">
<stop stop-color="#CDCDCD"/>
<stop offset="1" stop-color="#CDCDCD" stop-opacity="0.78"/>
</linearGradient>
<linearGradient id="paint14_linear_2_757" x1="812.935" y1="986.019" x2="1078.92" y2="1234.27" gradientUnits="userSpaceOnUse">
<stop stop-color="#CDCDCD"/>
<stop offset="1" stop-color="#CDCDCD" stop-opacity="0.78"/>
</linearGradient>
<linearGradient id="paint15_linear_2_757" x1="828.137" y1="961.09" x2="1094.12" y2="1209.34" gradientUnits="userSpaceOnUse">
<stop stop-color="#CDCDCD"/>
<stop offset="1" stop-color="#CDCDCD" stop-opacity="0.78"/>
</linearGradient>
<linearGradient id="paint16_linear_2_757" x1="843.337" y1="936.161" x2="1109.32" y2="1184.41" gradientUnits="userSpaceOnUse">
<stop stop-color="#CDCDCD"/>
<stop offset="1" stop-color="#CDCDCD" stop-opacity="0.78"/>
</linearGradient>
<linearGradient id="paint17_linear_2_757" x1="858.536" y1="911.232" x2="1124.52" y2="1159.48" gradientUnits="userSpaceOnUse">
<stop stop-color="#CDCDCD"/>
<stop offset="1" stop-color="#CDCDCD" stop-opacity="0.78"/>
</linearGradient>
<linearGradient id="paint18_linear_2_757" x1="873.735" y1="886.302" x2="1139.72" y2="1134.55" gradientUnits="userSpaceOnUse">
<stop stop-color="#CDCDCD"/>
<stop offset="1" stop-color="#CDCDCD" stop-opacity="0.78"/>
</linearGradient>
<linearGradient id="paint19_linear_2_757" x1="888.937" y1="861.375" x2="1154.92" y2="1109.62" gradientUnits="userSpaceOnUse">
<stop stop-color="#CDCDCD"/>
<stop offset="1" stop-color="#CDCDCD" stop-opacity="0.78"/>
</linearGradient>
<linearGradient id="paint20_linear_2_757" x1="904.137" y1="836.446" x2="1170.12" y2="1084.7" gradientUnits="userSpaceOnUse">
<stop stop-color="#CDCDCD"/>
<stop offset="1" stop-color="#CDCDCD" stop-opacity="0.78"/>
</linearGradient>
<linearGradient id="paint21_linear_2_757" x1="919.335" y1="811.517" x2="1185.32" y2="1059.77" gradientUnits="userSpaceOnUse">
<stop stop-color="#CDCDCD"/>
<stop offset="1" stop-color="#CDCDCD" stop-opacity="0.78"/>
</linearGradient>
<linearGradient id="paint22_linear_2_757" x1="934.536" y1="786.588" x2="1200.52" y2="1034.84" gradientUnits="userSpaceOnUse">
<stop stop-color="#CDCDCD"/>
<stop offset="1" stop-color="#CDCDCD" stop-opacity="0.78"/>
</linearGradient>
<linearGradient id="paint23_linear_2_757" x1="949.736" y1="761.658" x2="1215.72" y2="1009.91" gradientUnits="userSpaceOnUse">
<stop stop-color="#CDCDCD"/>
<stop offset="1" stop-color="#CDCDCD" stop-opacity="0.78"/>
</linearGradient>
<linearGradient id="paint24_linear_2_757" x1="964.937" y1="736.729" x2="1230.92" y2="984.979" gradientUnits="userSpaceOnUse">
<stop stop-color="#CDCDCD"/>
<stop offset="1" stop-color="#CDCDCD" stop-opacity="0.78"/>
</linearGradient>
</defs>
</svg>
