<svg width="50" height="50" viewBox="0 0 50 50" fill="none" xmlns="http://www.w3.org/2000/svg">
<circle cx="25" cy="25" r="25" fill="#969696"/>
<path d="M13.56 36V19.36H16.44V36H13.56ZM15 16.512C14.4453 16.512 13.9653 16.3093 13.56 15.904C13.176 15.4987 12.984 15.0293 12.984 14.496C12.984 13.8773 13.1653 13.3867 13.528 13.024C13.8907 12.6613 14.3813 12.48 15 12.48C15.5547 12.48 16.024 12.6827 16.408 13.088C16.8133 13.472 17.016 13.9413 17.016 14.496C17.016 15.0933 16.8347 15.584 16.472 15.968C16.1093 16.3307 15.6187 16.512 15 16.512ZM21.56 36V19.36H24.344V22.144C24.9413 21.248 25.6987 20.5013 26.616 19.904C27.5547 19.2853 28.664 18.976 29.944 18.976C31.8213 18.976 33.2187 19.5413 34.136 20.672C35.0747 21.8027 35.544 23.296 35.544 25.152V36H32.664V25.472C32.664 24.2773 32.376 23.3173 31.8 22.592C31.2453 21.8667 30.4667 21.504 29.464 21.504C28.4827 21.504 27.5547 21.856 26.68 22.56C25.8053 23.2427 25.0587 24.0533 24.44 24.992V36H21.56Z" fill="#FFFCFC"/>
</svg>
