<svg width="47" height="47" viewBox="0 0 47 47" fill="none" xmlns="http://www.w3.org/2000/svg">
<path d="M23.3302 46.8323C36.2151 46.8323 46.6604 36.387 46.6604 23.5021C46.6604 10.6172 36.2151 0.171875 23.3302 0.171875C10.4453 0.171875 0 10.6172 0 23.5021C0 36.387 10.4453 46.8323 23.3302 46.8323Z" fill="black"/>
<path d="M37.2705 25.3794V34.998H31.6939V26.024C31.6939 23.7708 30.8887 22.232 28.8696 22.232C27.3288 22.232 26.4134 23.268 26.0092 24.2711C25.8624 24.6296 25.8245 25.1274 25.8245 25.6302V34.9975H20.2475C20.2475 34.9975 20.3224 19.7987 20.2475 18.2254H25.8249V20.6022C25.8137 20.6209 25.7979 20.6392 25.7879 20.6571H25.8249V20.6022C26.5661 19.4618 27.8877 17.8316 30.8509 17.8316C34.5198 17.8316 37.2705 20.2287 37.2705 25.3794ZM14.4135 10.1406C12.5059 10.1406 11.2578 11.3928 11.2578 13.0381C11.2578 14.6484 12.4697 15.9368 14.3403 15.9368H14.3765C16.3216 15.9368 17.531 14.6484 17.531 13.0381C17.494 11.3928 16.3216 10.1406 14.4135 10.1406ZM11.5893 34.998H17.1642V18.2254H11.5893V34.998Z" fill="white"/>
</svg>
