<svg width="227" height="227" viewBox="0 0 227 227" fill="none" xmlns="http://www.w3.org/2000/svg">
<g clip-path="url(#clip0_7_2351)">
<g filter="url(#filter0_d_7_2351)">
<path d="M169 13H34C22.402 13 13 22.402 13 34V169C13 180.598 22.402 190 34 190H169C180.598 190 190 180.598 190 169V34C190 22.402 180.598 13 169 13Z" fill="#353535"/>
</g>
<path d="M84.0973 115.248H109.345V126H72.0013V61.296H84.0973V115.248ZM118.501 126V77.328H130.021V126H118.501ZM117.349 62.736C117.349 60.816 118.021 59.184 119.365 57.84C120.709 56.496 122.341 55.824 124.261 55.824C126.181 55.824 127.813 56.496 129.157 57.84C130.501 59.184 131.173 60.816 131.173 62.736C131.173 64.72 130.501 66.384 129.157 67.728C127.813 69.072 126.181 69.744 124.261 69.744C122.341 69.744 120.709 69.072 119.365 67.728C118.021 66.384 117.349 64.72 117.349 62.736Z" fill="#59B95F"/>
<path d="M29.14 144.76V142.5C30.0467 142.007 31 141.76 32 141.76C33.3733 141.76 34.4467 142.093 35.22 142.76C36.0067 143.427 36.4 144.28 36.4 145.32C36.4 146.827 35.7133 147.853 34.34 148.4C35.0867 148.587 35.6667 148.94 36.08 149.46C36.4933 149.967 36.7 150.613 36.7 151.4C36.7 152.493 36.2933 153.387 35.48 154.08C34.68 154.76 33.5533 155.1 32.1 155.1C30.7533 155.1 29.6067 154.88 28.66 154.44V152.1C29.7 152.66 30.7933 152.94 31.94 152.94C32.66 152.94 33.22 152.773 33.62 152.44C34.0333 152.093 34.24 151.653 34.24 151.12C34.24 149.96 33.3 149.38 31.42 149.38H30.66V147.36H31.42C32.1267 147.36 32.72 147.207 33.2 146.9C33.68 146.593 33.92 146.16 33.92 145.6C33.92 144.48 33.2333 143.92 31.86 143.92C30.9533 143.92 30.0467 144.2 29.14 144.76ZM31.184 169.352H35.36V171H28.528V169.464C29.776 168.579 30.8533 167.635 31.76 166.632C32.6667 165.619 33.12 164.707 33.12 163.896C33.12 163.363 32.9653 162.947 32.656 162.648C32.3467 162.349 31.8987 162.2 31.312 162.2C30.4267 162.2 29.5787 162.531 28.768 163.192V161.32C29.12 161.053 29.5573 160.835 30.08 160.664C30.6027 160.493 31.1253 160.408 31.648 160.408C32.672 160.408 33.504 160.691 34.144 161.256C34.7947 161.811 35.12 162.595 35.12 163.608C35.12 165.507 33.808 167.421 31.184 169.352ZM36.7688 167.576V165.96H40.8328V167.576H36.7688ZM41.8174 164.168V162.168L44.5854 160.536H46.2814V171H44.3774V162.616L41.8174 164.168Z" fill="#59B95F"/>
<path d="M33.64 39.16C34.24 39.16 34.7133 38.9467 35.06 38.52C35.42 38.08 35.6 37.5 35.6 36.78C35.6 36.1267 35.4267 35.6067 35.08 35.22C34.7333 34.8333 34.26 34.64 33.66 34.64C32.7933 34.64 32.0067 35.0067 31.3 35.74C31.38 36.9133 31.6267 37.78 32.04 38.34C32.4667 38.8867 33 39.16 33.64 39.16ZM37.08 27.94V30.2C36.56 29.9333 35.96 29.8 35.28 29.8C34.2133 29.8 33.3467 30.16 32.68 30.88C32.0133 31.6 31.5867 32.5267 31.4 33.66C32.2 32.9267 33.1467 32.56 34.24 32.56C35.4 32.56 36.3267 32.94 37.02 33.7C37.7267 34.46 38.08 35.48 38.08 36.76C38.08 38.08 37.68 39.1733 36.88 40.04C36.08 40.8933 34.9933 41.32 33.62 41.32C32.06 41.32 30.8733 40.7533 30.06 39.62C29.2467 38.4733 28.84 36.9467 28.84 35.04C28.84 32.8267 29.42 31.04 30.58 29.68C31.74 28.3067 33.2533 27.62 35.12 27.62C35.84 27.62 36.4933 27.7267 37.08 27.94ZM38.5241 43.52L40.4841 38.58H43.2641L40.6041 43.52H38.5241ZM49.0756 34.4C49.9956 34.4 50.7356 34.0467 51.2956 33.34C51.2423 32.22 51.0156 31.3733 50.6156 30.8C50.229 30.2133 49.7023 29.92 49.0356 29.92C48.4223 29.92 47.929 30.12 47.5556 30.52C47.1956 30.92 47.0156 31.4667 47.0156 32.16C47.0156 32.84 47.2023 33.3867 47.5756 33.8C47.949 34.2 48.449 34.4 49.0756 34.4ZM45.3356 40.78V38.48C46.029 38.8 46.7356 38.96 47.4556 38.96C49.6423 38.96 50.8956 37.7733 51.2156 35.4C50.6156 36.0667 49.7023 36.4 48.4756 36.4C47.3423 36.4 46.4023 36.02 45.6556 35.26C44.909 34.4867 44.5356 33.4667 44.5356 32.2C44.5356 30.92 44.929 29.86 45.7156 29.02C46.5023 28.1667 47.569 27.74 48.9156 27.74C50.449 27.74 51.629 28.3 52.4556 29.42C53.2823 30.5267 53.6956 32 53.6956 33.84C53.6956 36.2267 53.1623 38.0467 52.0956 39.3C51.0423 40.54 49.569 41.16 47.6756 41.16C46.809 41.16 46.029 41.0333 45.3356 40.78ZM57.5448 36H60.9848V29.42L57.5448 36ZM65.1048 36V38.06H63.3848V41H60.9848V38.06H55.1648V36L59.5248 27.9H63.3848V36H65.1048ZM65.7991 32.46V29.96L69.2591 27.92H71.3791V41H68.9991V30.52L65.7991 32.46Z" fill="#59B95F"/>
<path d="M166.829 33.14V35.3H163.149V38.96H160.929V35.3H157.309V33.14H160.929V29.44H163.149V33.14H166.829ZM168.092 32.46V29.96L171.552 27.92H173.672V41H171.292V30.52L168.092 32.46Z" fill="#59B95F"/>
</g>
<defs>
<filter id="filter0_d_7_2351" x="0" y="0" width="227" height="227" filterUnits="userSpaceOnUse" color-interpolation-filters="sRGB">
<feFlood flood-opacity="0" result="BackgroundImageFix"/>
<feColorMatrix in="SourceAlpha" type="matrix" values="0 0 0 0 0 0 0 0 0 0 0 0 0 0 0 0 0 0 127 0" result="hardAlpha"/>
<feOffset dx="12" dy="12"/>
<feGaussianBlur stdDeviation="12.5"/>
<feComposite in2="hardAlpha" operator="out"/>
<feColorMatrix type="matrix" values="0 0 0 0 0 0 0 0 0 0 0 0 0 0 0 0 0 0 0.25 0"/>
<feBlend mode="normal" in2="BackgroundImageFix" result="effect1_dropShadow_7_2351"/>
<feBlend mode="normal" in="SourceGraphic" in2="effect1_dropShadow_7_2351" result="shape"/>
</filter>
<clipPath id="clip0_7_2351">
<rect width="227" height="227" fill="white"/>
</clipPath>
</defs>
</svg>
