<svg width="495" height="510" viewBox="0 0 495 510" fill="none" xmlns="http://www.w3.org/2000/svg">
<path d="M405.08 31.438H411.57V33H403.298V18.172H411.46V19.734H405.08V24.816H410.712V26.378H405.08V31.438ZM414.319 33V17.446H416.057V33H414.319ZM426.472 26.708V26.268C426.472 25.344 426.222 24.6107 425.724 24.068C425.225 23.5107 424.536 23.232 423.656 23.232C422.82 23.232 422.108 23.5327 421.522 24.134C420.935 24.7353 420.59 25.5933 420.488 26.708H426.472ZM427.506 30.8V32.428C426.64 32.8827 425.584 33.11 424.338 33.11C422.651 33.11 421.287 32.5967 420.246 31.57C419.219 30.5287 418.706 29.1573 418.706 27.456C418.706 25.6813 419.168 24.2807 420.092 23.254C421.016 22.2273 422.204 21.714 423.656 21.714C425.049 21.714 426.156 22.1613 426.978 23.056C427.799 23.9507 428.21 25.2193 428.21 26.862C428.21 27.3313 428.173 27.764 428.1 28.16H420.488C420.62 29.26 421.038 30.1033 421.742 30.69C422.446 31.2767 423.37 31.57 424.514 31.57C425.76 31.57 426.758 31.3133 427.506 30.8ZM432.004 27.478C432.019 28.6807 432.385 29.6853 433.104 30.492C433.823 31.284 434.842 31.68 436.162 31.68C437.013 31.68 437.805 31.438 438.538 30.954V32.604C437.834 33.0293 436.969 33.242 435.942 33.242C434.182 33.242 432.781 32.6847 431.74 31.57C430.713 30.4407 430.2 29.0693 430.2 27.456C430.2 25.872 430.713 24.508 431.74 23.364C432.781 22.22 434.197 21.648 435.986 21.648C436.939 21.648 437.79 21.8533 438.538 22.264V23.914C437.863 23.4593 437.071 23.232 436.162 23.232C434.901 23.232 433.889 23.6427 433.126 24.464C432.378 25.2707 432.004 26.2753 432.004 27.478ZM443.613 23.254V29.788C443.613 30.976 444.171 31.57 445.285 31.57C445.857 31.57 446.363 31.4013 446.803 31.064V32.714C446.319 32.978 445.777 33.11 445.175 33.11C442.975 33.11 441.875 31.988 441.875 29.744V23.254H440.093V21.846H441.875V19.074H443.613V21.846H446.693V23.254H443.613ZM451.052 21.846V23.804C451.639 22.4253 452.651 21.736 454.088 21.736C454.352 21.736 454.558 21.7507 454.704 21.78V23.496C454.396 23.3933 454.081 23.342 453.758 23.342C452.981 23.342 452.336 23.7013 451.822 24.42C451.309 25.1387 451.052 25.9673 451.052 26.906V33H449.314L449.336 21.846H451.052ZM456.6 33V21.846H458.338V33H456.6ZM456.644 19.162C456.439 18.942 456.336 18.6707 456.336 18.348C456.336 18.0253 456.439 17.754 456.644 17.534C456.864 17.314 457.136 17.204 457.458 17.204C457.781 17.204 458.052 17.314 458.272 17.534C458.492 17.754 458.602 18.0253 458.602 18.348C458.602 18.6707 458.492 18.942 458.272 19.162C458.052 19.3673 457.781 19.47 457.458 19.47C457.136 19.47 456.864 19.3673 456.644 19.162ZM462.791 27.478C462.806 28.6807 463.172 29.6853 463.891 30.492C464.61 31.284 465.629 31.68 466.949 31.68C467.8 31.68 468.592 31.438 469.325 30.954V32.604C468.621 33.0293 467.756 33.242 466.729 33.242C464.969 33.242 463.568 32.6847 462.527 31.57C461.5 30.4407 460.987 29.0693 460.987 27.456C460.987 25.872 461.5 24.508 462.527 23.364C463.568 22.22 464.984 21.648 466.773 21.648C467.726 21.648 468.577 21.8533 469.325 22.264V23.914C468.65 23.4593 467.858 23.232 466.949 23.232C465.688 23.232 464.676 23.6427 463.913 24.464C463.165 25.2707 462.791 26.2753 462.791 27.478ZM409.938 51.172L404.768 66H402.524L397.508 51.172H399.422L401.358 57.046L403.668 64.394C404.24 62.546 405.032 60.0967 406.044 57.046L408.024 51.172H409.938ZM419.436 59.708V59.268C419.436 58.344 419.186 57.6107 418.688 57.068C418.189 56.5107 417.5 56.232 416.62 56.232C415.784 56.232 415.072 56.5327 414.486 57.134C413.899 57.7353 413.554 58.5933 413.452 59.708H419.436ZM420.47 63.8V65.428C419.604 65.8827 418.548 66.11 417.302 66.11C415.615 66.11 414.251 65.5967 413.21 64.57C412.183 63.5287 411.67 62.1573 411.67 60.456C411.67 58.6813 412.132 57.2807 413.056 56.254C413.98 55.2273 415.168 54.714 416.62 54.714C418.013 54.714 419.12 55.1613 419.942 56.056C420.763 56.9507 421.174 58.2193 421.174 59.862C421.174 60.3313 421.137 60.764 421.064 61.16H413.452C413.584 62.26 414.002 63.1033 414.706 63.69C415.41 64.2767 416.334 64.57 417.478 64.57C418.724 64.57 419.722 64.3133 420.47 63.8ZM425.54 50.446V56.782C426.2 55.3887 427.373 54.692 429.06 54.692C430.13 54.692 430.988 55.022 431.634 55.682C432.294 56.342 432.624 57.2367 432.624 58.366V66H430.886V58.784C430.886 57.9773 430.673 57.354 430.248 56.914C429.837 56.474 429.294 56.254 428.62 56.254C427.798 56.254 427.08 56.5693 426.464 57.2C425.848 57.8307 425.54 58.7327 425.54 59.906V66H423.824V50.446H425.54ZM435.793 66V54.846H437.531V66H435.793ZM435.837 52.162C435.631 51.942 435.529 51.6707 435.529 51.348C435.529 51.0253 435.631 50.754 435.837 50.534C436.057 50.314 436.328 50.204 436.651 50.204C436.973 50.204 437.245 50.314 437.465 50.534C437.685 50.754 437.795 51.0253 437.795 51.348C437.795 51.6707 437.685 51.942 437.465 52.162C437.245 52.3673 436.973 52.47 436.651 52.47C436.328 52.47 436.057 52.3673 435.837 52.162ZM441.983 60.478C441.998 61.6807 442.365 62.6853 443.083 63.492C443.802 64.284 444.821 64.68 446.141 64.68C446.992 64.68 447.784 64.438 448.517 63.954V65.604C447.813 66.0293 446.948 66.242 445.921 66.242C444.161 66.242 442.761 65.6847 441.719 64.57C440.693 63.4407 440.179 62.0693 440.179 60.456C440.179 58.872 440.693 57.508 441.719 56.364C442.761 55.22 444.176 54.648 445.965 54.648C446.919 54.648 447.769 54.8533 448.517 55.264V56.914C447.843 56.4593 447.051 56.232 446.141 56.232C444.88 56.232 443.868 56.6427 443.105 57.464C442.357 58.2707 441.983 59.2753 441.983 60.478ZM451.283 66V50.446H453.021V66H451.283ZM463.436 59.708V59.268C463.436 58.344 463.186 57.6107 462.688 57.068C462.189 56.5107 461.5 56.232 460.62 56.232C459.784 56.232 459.072 56.5327 458.486 57.134C457.899 57.7353 457.554 58.5933 457.452 59.708H463.436ZM464.47 63.8V65.428C463.604 65.8827 462.548 66.11 461.302 66.11C459.615 66.11 458.251 65.5967 457.21 64.57C456.183 63.5287 455.67 62.1573 455.67 60.456C455.67 58.6813 456.132 57.2807 457.056 56.254C457.98 55.2273 459.168 54.714 460.62 54.714C462.013 54.714 463.12 55.1613 463.942 56.056C464.763 56.9507 465.174 58.2193 465.174 59.862C465.174 60.3313 465.137 60.764 465.064 61.16H457.452C457.584 62.26 458.002 63.1033 458.706 63.69C459.41 64.2767 460.334 64.57 461.478 64.57C462.724 64.57 463.722 64.3133 464.47 63.8ZM473.896 55.22V56.87C473.221 56.4593 472.297 56.254 471.124 56.254C470.537 56.254 470.068 56.3933 469.716 56.672C469.378 56.936 469.21 57.2807 469.21 57.706C469.21 57.97 469.261 58.2047 469.364 58.41C469.466 58.6007 469.664 58.7913 469.958 58.982C470.266 59.1727 470.486 59.3047 470.618 59.378C470.764 59.4367 471.072 59.5687 471.542 59.774C472.48 60.1553 473.214 60.588 473.742 61.072C474.27 61.556 474.534 62.2087 474.534 63.03C474.534 63.9833 474.196 64.7387 473.522 65.296C472.862 65.8533 471.952 66.132 470.794 66.132C469.444 66.132 468.352 65.9047 467.516 65.45V63.756C468.498 64.3427 469.554 64.636 470.684 64.636C471.358 64.636 471.872 64.504 472.224 64.24C472.576 63.976 472.752 63.6167 472.752 63.162C472.752 62.634 472.554 62.2233 472.158 61.93C471.776 61.6367 471.131 61.3067 470.222 60.94C469.386 60.6173 468.711 60.214 468.198 59.73C467.699 59.246 467.45 58.5933 467.45 57.772C467.45 56.848 467.794 56.1147 468.484 55.572C469.188 55.0147 470.06 54.736 471.102 54.736C472.26 54.736 473.192 54.8973 473.896 55.22ZM416.941 86.966V85.272C417.792 84.7293 418.774 84.458 419.889 84.458C421.312 84.458 422.412 84.8247 423.189 85.558C423.981 86.2767 424.377 87.1713 424.377 88.242C424.377 89.0193 424.179 89.716 423.783 90.332C423.402 90.948 422.83 91.41 422.067 91.718C422.903 91.9087 423.563 92.2973 424.047 92.884C424.546 93.456 424.795 94.1747 424.795 95.04C424.795 96.2133 424.384 97.1887 423.563 97.966C422.742 98.7433 421.583 99.132 420.087 99.132C418.708 99.132 417.513 98.89 416.501 98.406V96.668C417.586 97.24 418.767 97.526 420.043 97.526C420.982 97.526 421.708 97.284 422.221 96.8C422.749 96.316 423.013 95.6853 423.013 94.908C423.013 94.1307 422.72 93.5367 422.133 93.126C421.561 92.7007 420.732 92.488 419.647 92.488H418.723V90.97H419.647C420.468 90.97 421.158 90.7427 421.715 90.288C422.287 89.8187 422.573 89.1953 422.573 88.418C422.573 87.6407 422.331 87.054 421.847 86.658C421.363 86.262 420.696 86.064 419.845 86.064C418.833 86.064 417.865 86.3647 416.941 86.966ZM431.743 97.636C432.726 97.636 433.481 97.394 434.009 96.91C434.537 96.426 434.801 95.8247 434.801 95.106C434.801 94.402 434.544 93.808 434.031 93.324C433.518 92.84 432.755 92.6053 431.743 92.62C430.76 92.6347 430.02 92.8987 429.521 93.412C429.037 93.9107 428.795 94.534 428.795 95.282C428.795 95.9567 429.052 96.5213 429.565 96.976C430.078 97.416 430.804 97.636 431.743 97.636ZM431.721 85.998C430.9 85.998 430.247 86.24 429.763 86.724C429.279 87.208 429.037 87.7947 429.037 88.484C429.037 89.32 429.294 89.9507 429.807 90.376C430.335 90.8013 431.002 91.014 431.809 91.014C432.586 91.014 433.224 90.794 433.723 90.354C434.222 89.8993 434.471 89.2687 434.471 88.462C434.471 87.758 434.236 87.1713 433.767 86.702C433.298 86.2327 432.616 85.998 431.721 85.998ZM433.921 91.784C435.696 92.3267 436.583 93.4853 436.583 95.26C436.583 96.448 436.121 97.4013 435.197 98.12C434.273 98.824 433.114 99.176 431.721 99.176C430.386 99.176 429.272 98.8313 428.377 98.142C427.482 97.4527 427.035 96.5287 427.035 95.37C427.035 94.5047 427.262 93.7713 427.717 93.17C428.186 92.554 428.824 92.1067 429.631 91.828C428.062 91.2267 427.277 90.1193 427.277 88.506C427.277 87.23 427.717 86.24 428.597 85.536C429.477 84.8173 430.518 84.458 431.721 84.458C432.968 84.458 434.031 84.81 434.911 85.514C435.791 86.2033 436.231 87.208 436.231 88.528C436.231 89.276 436.026 89.936 435.615 90.508C435.204 91.0653 434.64 91.4907 433.921 91.784ZM442.24 99.022L450.094 84.37H451.788L443.89 99.022H442.24ZM448.312 95.678C448.312 94.71 448.649 93.8887 449.324 93.214C449.999 92.5247 450.82 92.18 451.788 92.18C452.741 92.18 453.555 92.5247 454.23 93.214C454.919 93.9033 455.264 94.7247 455.264 95.678C455.264 96.6313 454.919 97.4527 454.23 98.142C453.555 98.8167 452.741 99.154 451.788 99.154C450.82 99.154 449.999 98.8167 449.324 98.142C448.649 97.4527 448.312 96.6313 448.312 95.678ZM438.786 87.67C438.786 86.7167 439.123 85.9027 439.798 85.228C440.487 84.5387 441.309 84.194 442.262 84.194C443.215 84.194 444.037 84.5387 444.726 85.228C445.415 85.9027 445.76 86.7167 445.76 87.67C445.76 88.638 445.415 89.4667 444.726 90.156C444.037 90.8307 443.215 91.168 442.262 91.168C441.309 91.168 440.487 90.8307 439.798 90.156C439.123 89.4667 438.786 88.638 438.786 87.67ZM440.876 86.284C440.495 86.6653 440.304 87.1273 440.304 87.67C440.304 88.2127 440.495 88.682 440.876 89.078C441.257 89.4593 441.719 89.65 442.262 89.65C442.805 89.65 443.267 89.4593 443.648 89.078C444.044 88.682 444.242 88.2127 444.242 87.67C444.242 87.1273 444.044 86.6653 443.648 86.284C443.267 85.9027 442.805 85.712 442.262 85.712C441.719 85.712 441.257 85.9027 440.876 86.284ZM450.38 94.292C449.999 94.6733 449.808 95.1353 449.808 95.678C449.808 96.2207 449.999 96.6827 450.38 97.064C450.776 97.4453 451.245 97.636 451.788 97.636C452.331 97.636 452.793 97.4453 453.174 97.064C453.57 96.6827 453.768 96.2207 453.768 95.678C453.768 95.1353 453.577 94.6733 453.196 94.292C452.815 93.896 452.345 93.698 451.788 93.698C451.245 93.698 450.776 93.896 450.38 94.292Z" fill="#424040"/>
<path d="M369.228 398.438H375.718V400H367.446V385.172H375.608V386.734H369.228V391.816H374.86V393.378H369.228V398.438ZM380.095 388.846V390.782C380.755 389.389 381.929 388.692 383.615 388.692C384.701 388.692 385.566 389.022 386.211 389.682C386.857 390.342 387.179 391.222 387.179 392.322V400H385.441V392.784C385.441 391.963 385.229 391.339 384.803 390.914C384.393 390.474 383.85 390.254 383.175 390.254C382.339 390.254 381.613 390.577 380.997 391.222C380.396 391.867 380.095 392.762 380.095 393.906V400H378.379V388.846H380.095ZM397.366 393.708V393.268C397.366 392.344 397.117 391.611 396.618 391.068C396.12 390.511 395.43 390.232 394.55 390.232C393.714 390.232 393.003 390.533 392.416 391.134C391.83 391.735 391.485 392.593 391.382 393.708H397.366ZM398.4 397.8V399.428C397.535 399.883 396.479 400.11 395.232 400.11C393.546 400.11 392.182 399.597 391.14 398.57C390.114 397.529 389.6 396.157 389.6 394.456C389.6 392.681 390.062 391.281 390.986 390.254C391.91 389.227 393.098 388.714 394.55 388.714C395.944 388.714 397.051 389.161 397.872 390.056C398.694 390.951 399.104 392.219 399.104 393.862C399.104 394.331 399.068 394.764 398.994 395.16H391.382C391.514 396.26 391.932 397.103 392.636 397.69C393.34 398.277 394.264 398.57 395.408 398.57C396.655 398.57 397.652 398.313 398.4 397.8ZM403.47 388.846V390.804C404.057 389.425 405.069 388.736 406.506 388.736C406.77 388.736 406.976 388.751 407.122 388.78V390.496C406.814 390.393 406.499 390.342 406.176 390.342C405.399 390.342 404.754 390.701 404.24 391.42C403.727 392.139 403.47 392.967 403.47 393.906V400H401.732L401.754 388.846H403.47ZM413.11 398.174C413.917 398.174 414.628 397.866 415.244 397.25C415.875 396.619 416.19 395.688 416.19 394.456C416.19 393.033 415.89 391.977 415.288 391.288C414.687 390.599 413.99 390.254 413.198 390.254C412.245 390.254 411.49 390.635 410.932 391.398C410.375 392.146 410.096 393.129 410.096 394.346C410.096 395.593 410.404 396.546 411.02 397.206C411.636 397.851 412.333 398.174 413.11 398.174ZM416.19 388.846H417.928V399.098C417.928 400.799 417.459 402.075 416.52 402.926C415.582 403.791 414.372 404.224 412.89 404.224C411.541 404.224 410.39 403.997 409.436 403.542V401.804C410.375 402.347 411.475 402.618 412.736 402.618C413.807 402.618 414.65 402.332 415.266 401.76C415.882 401.188 416.19 400.293 416.19 399.076V397.822C415.457 399.083 414.364 399.714 412.912 399.714C411.636 399.714 410.544 399.245 409.634 398.306C408.74 397.367 408.292 396.062 408.292 394.39C408.292 392.733 408.71 391.369 409.546 390.298C410.382 389.227 411.475 388.692 412.824 388.692C414.35 388.692 415.472 389.359 416.19 390.694V388.846ZM424.084 399.714L419.574 388.846H421.532L422.984 392.52L424.942 397.58C425.06 397.199 425.646 395.512 426.702 392.52L428 388.846H429.87L425.844 399.714C425.272 401.225 424.59 402.288 423.798 402.904C423.021 403.52 422.126 403.828 421.114 403.828C420.733 403.828 420.425 403.791 420.19 403.718V402.156C420.41 402.215 420.66 402.244 420.938 402.244C422.42 402.244 423.468 401.401 424.084 399.714ZM367.982 418.722V420.592C367.088 420.005 366.017 419.712 364.77 419.712C363.876 419.712 363.164 419.925 362.636 420.35C362.108 420.761 361.844 421.303 361.844 421.978C361.844 422.33 361.91 422.645 362.042 422.924C362.189 423.203 362.438 423.467 362.79 423.716C363.142 423.951 363.443 424.134 363.692 424.266C363.942 424.383 364.33 424.559 364.858 424.794C365.357 425.014 365.738 425.19 366.002 425.322C366.266 425.439 366.604 425.637 367.014 425.916C367.44 426.18 367.755 426.444 367.96 426.708C368.18 426.957 368.371 427.295 368.532 427.72C368.708 428.131 368.796 428.578 368.796 429.062C368.796 430.367 368.349 431.379 367.454 432.098C366.56 432.802 365.408 433.154 364 433.154C362.446 433.154 361.126 432.839 360.04 432.208V430.294C361.111 431.101 362.416 431.504 363.956 431.504C364.88 431.504 365.606 431.299 366.134 430.888C366.662 430.477 366.926 429.883 366.926 429.106C366.926 428.783 366.86 428.497 366.728 428.248C366.611 427.984 366.406 427.749 366.112 427.544C365.834 427.324 365.562 427.148 365.298 427.016C365.049 426.869 364.704 426.693 364.264 426.488C364.176 426.444 364.044 426.385 363.868 426.312C363.238 426.033 362.754 425.806 362.416 425.63C362.094 425.454 361.705 425.197 361.25 424.86C360.81 424.508 360.488 424.105 360.282 423.65C360.077 423.195 359.974 422.667 359.974 422.066C359.974 420.805 360.422 419.822 361.316 419.118C362.226 418.399 363.362 418.04 364.726 418.04C366.002 418.04 367.088 418.267 367.982 418.722ZM374.064 423.254V429.788C374.064 430.976 374.621 431.57 375.736 431.57C376.308 431.57 376.814 431.401 377.254 431.064V432.714C376.77 432.978 376.227 433.11 375.626 433.11C373.426 433.11 372.326 431.988 372.326 429.744V423.254H370.544V421.846H372.326V419.074H374.064V421.846H377.144V423.254H374.064ZM384.319 433.198C382.72 433.198 381.451 432.663 380.513 431.592C379.589 430.507 379.127 429.143 379.127 427.5C379.127 425.843 379.603 424.464 380.557 423.364C381.525 422.249 382.779 421.692 384.319 421.692C386.005 421.692 387.303 422.235 388.213 423.32C389.137 424.405 389.599 425.784 389.599 427.456C389.599 429.113 389.129 430.485 388.191 431.57C387.252 432.655 385.961 433.198 384.319 433.198ZM384.319 423.232C383.263 423.232 382.434 423.643 381.833 424.464C381.231 425.285 380.931 426.29 380.931 427.478C380.931 428.637 381.239 429.627 381.855 430.448C382.471 431.255 383.292 431.658 384.319 431.658C385.433 431.658 386.291 431.262 386.893 430.47C387.494 429.663 387.795 428.666 387.795 427.478C387.795 426.246 387.509 425.234 386.937 424.442C386.365 423.635 385.492 423.232 384.319 423.232ZM393.856 421.846V423.804C394.443 422.425 395.455 421.736 396.892 421.736C397.156 421.736 397.362 421.751 397.508 421.78V423.496C397.2 423.393 396.885 423.342 396.562 423.342C395.785 423.342 395.14 423.701 394.626 424.42C394.113 425.139 393.856 425.967 393.856 426.906V433H392.118L392.14 421.846H393.856ZM405.322 427.852H403.386C402.447 427.852 401.743 428.035 401.274 428.402C400.805 428.769 400.57 429.231 400.57 429.788C400.57 430.345 400.753 430.8 401.12 431.152C401.487 431.489 402.022 431.658 402.726 431.658C403.518 431.658 404.149 431.438 404.618 430.998C405.087 430.543 405.322 429.971 405.322 429.282V427.852ZM399.558 424.178V422.44C400.394 421.927 401.494 421.67 402.858 421.67C405.659 421.67 407.06 423.093 407.06 425.938V433H405.344V431.68C404.772 432.633 403.731 433.11 402.22 433.11C401.179 433.11 400.335 432.802 399.69 432.186C399.059 431.57 398.744 430.793 398.744 429.854C398.744 428.783 399.147 427.955 399.954 427.368C400.775 426.767 401.89 426.466 403.298 426.466H405.322V425.894C405.322 425.014 405.124 424.354 404.728 423.914C404.332 423.459 403.665 423.232 402.726 423.232C401.538 423.232 400.482 423.547 399.558 424.178ZM414.324 431.174C415.131 431.174 415.842 430.866 416.458 430.25C417.089 429.619 417.404 428.688 417.404 427.456C417.404 426.033 417.103 424.977 416.502 424.288C415.901 423.599 415.204 423.254 414.412 423.254C413.459 423.254 412.703 423.635 412.146 424.398C411.589 425.146 411.31 426.129 411.31 427.346C411.31 428.593 411.618 429.546 412.234 430.206C412.85 430.851 413.547 431.174 414.324 431.174ZM417.404 421.846H419.142V432.098C419.142 433.799 418.673 435.075 417.734 435.926C416.795 436.791 415.585 437.224 414.104 437.224C412.755 437.224 411.603 436.997 410.65 436.542V434.804C411.589 435.347 412.689 435.618 413.95 435.618C415.021 435.618 415.864 435.332 416.48 434.76C417.096 434.188 417.404 433.293 417.404 432.076V430.822C416.671 432.083 415.578 432.714 414.126 432.714C412.85 432.714 411.757 432.245 410.848 431.306C409.953 430.367 409.506 429.062 409.506 427.39C409.506 425.733 409.924 424.369 410.76 423.298C411.596 422.227 412.689 421.692 414.038 421.692C415.563 421.692 416.685 422.359 417.404 423.694V421.846ZM429.324 426.708V426.268C429.324 425.344 429.075 424.611 428.576 424.068C428.078 423.511 427.388 423.232 426.508 423.232C425.672 423.232 424.961 423.533 424.374 424.134C423.788 424.735 423.443 425.593 423.34 426.708H429.324ZM430.358 430.8V432.428C429.493 432.883 428.437 433.11 427.19 433.11C425.504 433.11 424.14 432.597 423.098 431.57C422.072 430.529 421.558 429.157 421.558 427.456C421.558 425.681 422.02 424.281 422.944 423.254C423.868 422.227 425.056 421.714 426.508 421.714C427.902 421.714 429.009 422.161 429.83 423.056C430.652 423.951 431.062 425.219 431.062 426.862C431.062 427.331 431.026 427.764 430.952 428.16H423.34C423.472 429.26 423.89 430.103 424.594 430.69C425.298 431.277 426.222 431.57 427.366 431.57C428.613 431.57 429.61 431.313 430.358 430.8ZM389.144 464.636C389.98 464.636 390.64 464.328 391.124 463.712C391.623 463.096 391.872 462.289 391.872 461.292C391.872 460.383 391.623 459.657 391.124 459.114C390.64 458.571 390.002 458.3 389.21 458.3C387.89 458.3 386.746 458.835 385.778 459.906C385.837 461.461 386.167 462.641 386.768 463.448C387.384 464.24 388.176 464.636 389.144 464.636ZM392.664 451.524V453.218C392.034 452.939 391.366 452.8 390.662 452.8C389.284 452.8 388.184 453.321 387.362 454.362C386.541 455.389 386.035 456.687 385.844 458.256C386.812 457.244 388.008 456.738 389.43 456.738C390.75 456.738 391.784 457.156 392.532 457.992C393.295 458.828 393.676 459.935 393.676 461.314C393.676 462.781 393.258 463.969 392.422 464.878C391.601 465.787 390.508 466.242 389.144 466.242C387.502 466.242 386.24 465.619 385.36 464.372C384.48 463.125 384.04 461.497 384.04 459.488C384.04 457.097 384.627 455.117 385.8 453.548C386.974 451.979 388.587 451.194 390.64 451.194C391.3 451.194 391.975 451.304 392.664 451.524ZM399.009 466.022L406.863 451.37H408.557L400.659 466.022H399.009ZM405.081 462.678C405.081 461.71 405.418 460.889 406.093 460.214C406.767 459.525 407.589 459.18 408.557 459.18C409.51 459.18 410.324 459.525 410.999 460.214C411.688 460.903 412.033 461.725 412.033 462.678C412.033 463.631 411.688 464.453 410.999 465.142C410.324 465.817 409.51 466.154 408.557 466.154C407.589 466.154 406.767 465.817 406.093 465.142C405.418 464.453 405.081 463.631 405.081 462.678ZM395.555 454.67C395.555 453.717 395.892 452.903 396.567 452.228C397.256 451.539 398.077 451.194 399.031 451.194C399.984 451.194 400.805 451.539 401.495 452.228C402.184 452.903 402.529 453.717 402.529 454.67C402.529 455.638 402.184 456.467 401.495 457.156C400.805 457.831 399.984 458.168 399.031 458.168C398.077 458.168 397.256 457.831 396.567 457.156C395.892 456.467 395.555 455.638 395.555 454.67ZM397.645 453.284C397.263 453.665 397.073 454.127 397.073 454.67C397.073 455.213 397.263 455.682 397.645 456.078C398.026 456.459 398.488 456.65 399.031 456.65C399.573 456.65 400.035 456.459 400.417 456.078C400.813 455.682 401.011 455.213 401.011 454.67C401.011 454.127 400.813 453.665 400.417 453.284C400.035 452.903 399.573 452.712 399.031 452.712C398.488 452.712 398.026 452.903 397.645 453.284ZM407.149 461.292C406.767 461.673 406.577 462.135 406.577 462.678C406.577 463.221 406.767 463.683 407.149 464.064C407.545 464.445 408.014 464.636 408.557 464.636C409.099 464.636 409.561 464.445 409.943 464.064C410.339 463.683 410.537 463.221 410.537 462.678C410.537 462.135 410.346 461.673 409.965 461.292C409.583 460.896 409.114 460.698 408.557 460.698C408.014 460.698 407.545 460.896 407.149 461.292Z" fill="#424040"/>
<path d="M206.039 460.438H212.529V462H204.257V447.172H212.419V448.734H206.039V453.816H211.671V455.378H206.039V460.438ZM214.838 456.852V455.334H219.986V456.852H214.838ZM230.08 460.482H233.446C234.384 460.482 235.103 460.269 235.602 459.844C236.115 459.404 236.372 458.766 236.372 457.93C236.372 457.094 236.086 456.441 235.514 455.972C234.956 455.503 234.157 455.268 233.116 455.268H230.08V460.482ZM230.08 448.69V453.75H232.456C233.644 453.75 234.524 453.501 235.096 453.002C235.668 452.503 235.954 451.858 235.954 451.066C235.954 450.377 235.682 449.812 235.14 449.372C234.612 448.917 233.82 448.69 232.764 448.69H230.08ZM228.298 447.172H232.764C234.289 447.172 235.506 447.524 236.416 448.228C237.34 448.932 237.802 449.878 237.802 451.066C237.802 451.917 237.56 452.657 237.076 453.288C236.606 453.904 235.998 454.293 235.25 454.454C236.071 454.586 236.768 454.96 237.34 455.576C237.926 456.177 238.22 456.999 238.22 458.04C238.22 459.228 237.824 460.189 237.032 460.922C236.254 461.641 235.147 462 233.71 462H228.298V447.172ZM240.866 462V450.846H242.604V462H240.866ZM240.91 448.162C240.705 447.942 240.602 447.671 240.602 447.348C240.602 447.025 240.705 446.754 240.91 446.534C241.13 446.314 241.401 446.204 241.724 446.204C242.047 446.204 242.318 446.314 242.538 446.534C242.758 446.754 242.868 447.025 242.868 447.348C242.868 447.671 242.758 447.942 242.538 448.162C242.318 448.367 242.047 448.47 241.724 448.47C241.401 448.47 241.13 448.367 240.91 448.162ZM245.913 462V446.534H247.629V462H245.913ZM249.895 456.148L254.427 462H252.337L247.849 456.148L252.227 450.846H254.295L249.895 456.148ZM263.589 455.708V455.268C263.589 454.344 263.34 453.611 262.841 453.068C262.342 452.511 261.653 452.232 260.773 452.232C259.937 452.232 259.226 452.533 258.639 453.134C258.052 453.735 257.708 454.593 257.605 455.708H263.589ZM264.623 459.8V461.428C263.758 461.883 262.702 462.11 261.455 462.11C259.768 462.11 258.404 461.597 257.363 460.57C256.336 459.529 255.823 458.157 255.823 456.456C255.823 454.681 256.285 453.281 257.209 452.254C258.133 451.227 259.321 450.714 260.773 450.714C262.166 450.714 263.274 451.161 264.095 452.056C264.916 452.951 265.327 454.219 265.327 455.862C265.327 456.331 265.29 456.764 265.217 457.16H257.605C257.737 458.26 258.155 459.103 258.859 459.69C259.563 460.277 260.487 460.57 261.631 460.57C262.878 460.57 263.875 460.313 264.623 459.8ZM274.049 451.22V452.87C273.374 452.459 272.45 452.254 271.277 452.254C270.69 452.254 270.221 452.393 269.869 452.672C269.532 452.936 269.363 453.281 269.363 453.706C269.363 453.97 269.414 454.205 269.517 454.41C269.62 454.601 269.818 454.791 270.111 454.982C270.419 455.173 270.639 455.305 270.771 455.378C270.918 455.437 271.226 455.569 271.695 455.774C272.634 456.155 273.367 456.588 273.895 457.072C274.423 457.556 274.687 458.209 274.687 459.03C274.687 459.983 274.35 460.739 273.675 461.296C273.015 461.853 272.106 462.132 270.947 462.132C269.598 462.132 268.505 461.905 267.669 461.45V459.756C268.652 460.343 269.708 460.636 270.837 460.636C271.512 460.636 272.025 460.504 272.377 460.24C272.729 459.976 272.905 459.617 272.905 459.162C272.905 458.634 272.707 458.223 272.311 457.93C271.93 457.637 271.284 457.307 270.375 456.94C269.539 456.617 268.864 456.214 268.351 455.73C267.852 455.246 267.603 454.593 267.603 453.772C267.603 452.848 267.948 452.115 268.637 451.572C269.341 451.015 270.214 450.736 271.255 450.736C272.414 450.736 273.345 450.897 274.049 451.22ZM220.586 484.55V482.68L223.996 480.612H225.624V495H223.908V482.504L220.586 484.55ZM229.986 489.984H234.804V481.646L229.986 489.984ZM238.654 489.984V491.502H236.52V495H234.804V491.502H228.226V489.984L233.704 480.612H236.52V489.984H238.654ZM243.715 495.022L251.569 480.37H253.263L245.365 495.022H243.715ZM249.787 491.678C249.787 490.71 250.124 489.889 250.799 489.214C251.473 488.525 252.295 488.18 253.263 488.18C254.216 488.18 255.03 488.525 255.705 489.214C256.394 489.903 256.739 490.725 256.739 491.678C256.739 492.631 256.394 493.453 255.705 494.142C255.03 494.817 254.216 495.154 253.263 495.154C252.295 495.154 251.473 494.817 250.799 494.142C250.124 493.453 249.787 492.631 249.787 491.678ZM240.261 483.67C240.261 482.717 240.598 481.903 241.273 481.228C241.962 480.539 242.783 480.194 243.737 480.194C244.69 480.194 245.511 480.539 246.201 481.228C246.89 481.903 247.235 482.717 247.235 483.67C247.235 484.638 246.89 485.467 246.201 486.156C245.511 486.831 244.69 487.168 243.737 487.168C242.783 487.168 241.962 486.831 241.273 486.156C240.598 485.467 240.261 484.638 240.261 483.67ZM242.351 482.284C241.969 482.665 241.779 483.127 241.779 483.67C241.779 484.213 241.969 484.682 242.351 485.078C242.732 485.459 243.194 485.65 243.737 485.65C244.279 485.65 244.741 485.459 245.123 485.078C245.519 484.682 245.717 484.213 245.717 483.67C245.717 483.127 245.519 482.665 245.123 482.284C244.741 481.903 244.279 481.712 243.737 481.712C243.194 481.712 242.732 481.903 242.351 482.284ZM251.855 490.292C251.473 490.673 251.283 491.135 251.283 491.678C251.283 492.221 251.473 492.683 251.855 493.064C252.251 493.445 252.72 493.636 253.263 493.636C253.805 493.636 254.267 493.445 254.649 493.064C255.045 492.683 255.243 492.221 255.243 491.678C255.243 491.135 255.052 490.673 254.671 490.292C254.289 489.896 253.82 489.698 253.263 489.698C252.72 489.698 252.251 489.896 251.855 490.292Z" fill="#424040"/>
<path d="M20.474 398.482H23.84C24.7787 398.482 25.4974 398.269 25.996 397.844C26.5094 397.404 26.766 396.766 26.766 395.93C26.766 395.094 26.48 394.441 25.908 393.972C25.3507 393.503 24.5514 393.268 23.51 393.268H20.474V398.482ZM20.474 386.69V391.75H22.85C24.038 391.75 24.918 391.501 25.49 391.002C26.062 390.503 26.348 389.858 26.348 389.066C26.348 388.377 26.0767 387.812 25.534 387.372C25.006 386.917 24.214 386.69 23.158 386.69H20.474ZM18.692 385.172H23.158C24.6834 385.172 25.9007 385.524 26.81 386.228C27.734 386.932 28.196 387.878 28.196 389.066C28.196 389.917 27.954 390.657 27.47 391.288C27.0007 391.904 26.392 392.293 25.644 392.454C26.4654 392.586 27.162 392.96 27.734 393.576C28.3207 394.177 28.614 394.999 28.614 396.04C28.614 397.228 28.218 398.189 27.426 398.922C26.6487 399.641 25.5414 400 24.104 400H18.692V385.172ZM37.1784 394.852H35.2424C34.3037 394.852 33.5997 395.035 33.1304 395.402C32.6611 395.769 32.4264 396.231 32.4264 396.788C32.4264 397.345 32.6097 397.8 32.9764 398.152C33.3431 398.489 33.8784 398.658 34.5824 398.658C35.3744 398.658 36.0051 398.438 36.4744 397.998C36.9437 397.543 37.1784 396.971 37.1784 396.282V394.852ZM31.4144 391.178V389.44C32.2504 388.927 33.3504 388.67 34.7144 388.67C37.5157 388.67 38.9164 390.093 38.9164 392.938V400H37.2004V398.68C36.6284 399.633 35.5871 400.11 34.0764 400.11C33.0351 400.11 32.1917 399.802 31.5464 399.186C30.9157 398.57 30.6004 397.793 30.6004 396.854C30.6004 395.783 31.0037 394.955 31.8104 394.368C32.6317 393.767 33.7464 393.466 35.1544 393.466H37.1784V392.894C37.1784 392.014 36.9804 391.354 36.5844 390.914C36.1884 390.459 35.5211 390.232 34.5824 390.232C33.3944 390.232 32.3384 390.547 31.4144 391.178ZM44.3985 390.254V396.788C44.3985 397.976 44.9559 398.57 46.0705 398.57C46.6425 398.57 47.1485 398.401 47.5885 398.064V399.714C47.1045 399.978 46.5619 400.11 45.9605 400.11C43.7605 400.11 42.6605 398.988 42.6605 396.744V390.254H40.8785V388.846H42.6605V386.074H44.3985V388.846H47.4785V390.254H44.3985ZM52.5196 390.254V396.788C52.5196 397.976 53.077 398.57 54.1916 398.57C54.7636 398.57 55.2696 398.401 55.7096 398.064V399.714C55.2256 399.978 54.683 400.11 54.0816 400.11C51.8816 400.11 50.7816 398.988 50.7816 396.744V390.254H48.9996V388.846H50.7816V386.074H52.5196V388.846H55.5996V390.254H52.5196ZM65.3487 393.708V393.268C65.3487 392.344 65.0994 391.611 64.6007 391.068C64.1021 390.511 63.4127 390.232 62.5327 390.232C61.6967 390.232 60.9854 390.533 60.3987 391.134C59.8121 391.735 59.4674 392.593 59.3647 393.708H65.3487ZM66.3827 397.8V399.428C65.5174 399.883 64.4614 400.11 63.2147 400.11C61.5281 400.11 60.1641 399.597 59.1227 398.57C58.0961 397.529 57.5827 396.157 57.5827 394.456C57.5827 392.681 58.0447 391.281 58.9687 390.254C59.8927 389.227 61.0807 388.714 62.5327 388.714C63.9261 388.714 65.0334 389.161 65.8547 390.056C66.6761 390.951 67.0867 392.219 67.0867 393.862C67.0867 394.331 67.0501 394.764 66.9767 395.16H59.3647C59.4967 396.26 59.9147 397.103 60.6187 397.69C61.3227 398.277 62.2467 398.57 63.3907 398.57C64.6374 398.57 65.6347 398.313 66.3827 397.8ZM71.4529 388.846V390.804C72.0395 389.425 73.0515 388.736 74.4889 388.736C74.7529 388.736 74.9582 388.751 75.1049 388.78V390.496C74.7969 390.393 74.4815 390.342 74.1589 390.342C73.3815 390.342 72.7362 390.701 72.2229 391.42C71.7095 392.139 71.4529 392.967 71.4529 393.906V400H69.7149L69.7369 388.846H71.4529ZM77.0006 400V388.846H78.7386V400H77.0006ZM77.0446 386.162C76.8393 385.942 76.7366 385.671 76.7366 385.348C76.7366 385.025 76.8393 384.754 77.0446 384.534C77.2646 384.314 77.536 384.204 77.8586 384.204C78.1813 384.204 78.4526 384.314 78.6726 384.534C78.8926 384.754 79.0026 385.025 79.0026 385.348C79.0026 385.671 78.8926 385.942 78.6726 386.162C78.4526 386.367 78.1813 386.47 77.8586 386.47C77.536 386.47 77.2646 386.367 77.0446 386.162ZM89.1534 393.708V393.268C89.1534 392.344 88.9041 391.611 88.4054 391.068C87.9067 390.511 87.2174 390.232 86.3374 390.232C85.5014 390.232 84.7901 390.533 84.2034 391.134C83.6167 391.735 83.2721 392.593 83.1694 393.708H89.1534ZM90.1874 397.8V399.428C89.3221 399.883 88.2661 400.11 87.0194 400.11C85.3327 400.11 83.9687 399.597 82.9274 398.57C81.9007 397.529 81.3874 396.157 81.3874 394.456C81.3874 392.681 81.8494 391.281 82.7734 390.254C83.6974 389.227 84.8854 388.714 86.3374 388.714C87.7307 388.714 88.8381 389.161 89.6594 390.056C90.4807 390.951 90.8914 392.219 90.8914 393.862C90.8914 394.331 90.8547 394.764 90.7814 395.16H83.1694C83.3014 396.26 83.7194 397.103 84.4234 397.69C85.1274 398.277 86.0514 398.57 87.1954 398.57C88.4421 398.57 89.4394 398.313 90.1874 397.8ZM99.6135 389.22V390.87C98.9389 390.459 98.0149 390.254 96.8415 390.254C96.2549 390.254 95.7855 390.393 95.4335 390.672C95.0962 390.936 94.9275 391.281 94.9275 391.706C94.9275 391.97 94.9789 392.205 95.0815 392.41C95.1842 392.601 95.3822 392.791 95.6755 392.982C95.9835 393.173 96.2035 393.305 96.3355 393.378C96.4822 393.437 96.7902 393.569 97.2595 393.774C98.1982 394.155 98.9315 394.588 99.4595 395.072C99.9875 395.556 100.252 396.209 100.252 397.03C100.252 397.983 99.9142 398.739 99.2395 399.296C98.5795 399.853 97.6702 400.132 96.5115 400.132C95.1622 400.132 94.0695 399.905 93.2335 399.45V397.756C94.2162 398.343 95.2722 398.636 96.4015 398.636C97.0762 398.636 97.5895 398.504 97.9415 398.24C98.2935 397.976 98.4695 397.617 98.4695 397.162C98.4695 396.634 98.2715 396.223 97.8755 395.93C97.4942 395.637 96.8489 395.307 95.9395 394.94C95.1035 394.617 94.4289 394.214 93.9155 393.73C93.4169 393.246 93.1675 392.593 93.1675 391.772C93.1675 390.848 93.5122 390.115 94.2015 389.572C94.9055 389.015 95.7782 388.736 96.8195 388.736C97.9782 388.736 98.9095 388.897 99.6135 389.22ZM16.6045 437.312H14.6685C12.3218 434.32 11.1485 430.969 11.1485 427.258C11.1485 425.469 11.4491 423.723 12.0505 422.022C12.6518 420.321 13.4731 418.795 14.5145 417.446H16.4285C14.1258 420.555 12.9745 423.855 12.9745 427.346C12.9745 430.866 14.1845 434.188 16.6045 437.312ZM20.379 423.254V429.788C20.379 430.976 20.9363 431.57 22.051 431.57C22.623 431.57 23.129 431.401 23.569 431.064V432.714C23.085 432.978 22.5423 433.11 21.941 433.11C19.741 433.11 18.641 431.988 18.641 429.744V423.254H16.859V421.846H18.641V419.074H20.379V421.846H23.459V423.254H20.379ZM27.8181 421.846V423.804C28.4048 422.425 29.4168 421.736 30.8541 421.736C31.1181 421.736 31.3234 421.751 31.4701 421.78V423.496C31.1621 423.393 30.8468 423.342 30.5241 423.342C29.7468 423.342 29.1014 423.701 28.5881 424.42C28.0748 425.139 27.8181 425.967 27.8181 426.906V433H26.0801L26.1021 421.846H27.8181ZM39.2839 427.852H37.3479C36.4092 427.852 35.7052 428.035 35.2359 428.402C34.7665 428.769 34.5319 429.231 34.5319 429.788C34.5319 430.345 34.7152 430.8 35.0819 431.152C35.4485 431.489 35.9839 431.658 36.6879 431.658C37.4799 431.658 38.1105 431.438 38.5799 430.998C39.0492 430.543 39.2839 429.971 39.2839 429.282V427.852ZM33.5199 424.178V422.44C34.3559 421.927 35.4559 421.67 36.8199 421.67C39.6212 421.67 41.0219 423.093 41.0219 425.938V433H39.3059V431.68C38.7339 432.633 37.6925 433.11 36.1819 433.11C35.1405 433.11 34.2972 432.802 33.6519 432.186C33.0212 431.57 32.7059 430.793 32.7059 429.854C32.7059 428.783 33.1092 427.955 33.9159 427.368C34.7372 426.767 35.8519 426.466 37.2599 426.466H39.2839V425.894C39.2839 425.014 39.0859 424.354 38.6899 423.914C38.2939 423.459 37.6265 423.232 36.6879 423.232C35.4999 423.232 34.4439 423.547 33.5199 424.178ZM48.352 431.592C49.2613 431.592 50.0313 431.255 50.662 430.58C51.3073 429.905 51.63 428.827 51.63 427.346C51.63 425.938 51.3 424.904 50.64 424.244C49.98 423.584 49.254 423.254 48.462 423.254C47.538 423.254 46.768 423.628 46.152 424.376C45.5507 425.109 45.25 426.165 45.25 427.544C45.25 428.747 45.5433 429.722 46.13 430.47C46.7167 431.218 47.4573 431.592 48.352 431.592ZM51.63 417.446H53.368V433H51.63V431.35C50.838 432.567 49.694 433.176 48.198 433.176C46.7167 433.176 45.5507 432.626 44.7 431.526C43.864 430.426 43.446 429.091 43.446 427.522C43.446 425.777 43.8933 424.369 44.788 423.298C45.6827 422.213 46.834 421.67 48.242 421.67C49.694 421.67 50.8233 422.293 51.63 423.54V417.446ZM56.6764 433V421.846H58.4144V433H56.6764ZM56.7204 419.162C56.5151 418.942 56.4124 418.671 56.4124 418.348C56.4124 418.025 56.5151 417.754 56.7204 417.534C56.9404 417.314 57.2118 417.204 57.5344 417.204C57.8571 417.204 58.1284 417.314 58.3484 417.534C58.5684 417.754 58.6784 418.025 58.6784 418.348C58.6784 418.671 58.5684 418.942 58.3484 419.162C58.1284 419.367 57.8571 419.47 57.5344 419.47C57.2118 419.47 56.9404 419.367 56.7204 419.162ZM64.1212 423.254V429.788C64.1212 430.976 64.6785 431.57 65.7932 431.57C66.3652 431.57 66.8712 431.401 67.3112 431.064V432.714C66.8272 432.978 66.2845 433.11 65.6832 433.11C63.4832 433.11 62.3832 431.988 62.3832 429.744V423.254H60.6012V421.846H62.3832V419.074H64.1212V421.846H67.2012V423.254H64.1212ZM74.3763 433.198C72.7776 433.198 71.5089 432.663 70.5703 431.592C69.6463 430.507 69.1843 429.143 69.1843 427.5C69.1843 425.843 69.6609 424.464 70.6143 423.364C71.5823 422.249 72.8363 421.692 74.3763 421.692C76.0629 421.692 77.3609 422.235 78.2703 423.32C79.1943 424.405 79.6563 425.784 79.6563 427.456C79.6563 429.113 79.1869 430.485 78.2483 431.57C77.3096 432.655 76.0189 433.198 74.3763 433.198ZM74.3763 423.232C73.3203 423.232 72.4916 423.643 71.8903 424.464C71.2889 425.285 70.9883 426.29 70.9883 427.478C70.9883 428.637 71.2963 429.627 71.9123 430.448C72.5283 431.255 73.3496 431.658 74.3763 431.658C75.4909 431.658 76.3489 431.262 76.9503 430.47C77.5516 429.663 77.8523 428.666 77.8523 427.478C77.8523 426.246 77.5663 425.234 76.9943 424.442C76.4223 423.635 75.5496 423.232 74.3763 423.232ZM83.9138 421.846V423.782C84.5738 422.389 85.7471 421.692 87.4338 421.692C88.5191 421.692 89.3845 422.022 90.0298 422.682C90.6751 423.342 90.9978 424.222 90.9978 425.322V433H89.2598V425.784C89.2598 424.963 89.0471 424.339 88.6218 423.914C88.2111 423.474 87.6685 423.254 86.9938 423.254C86.1578 423.254 85.4318 423.577 84.8158 424.222C84.2145 424.867 83.9138 425.762 83.9138 426.906V433H82.1978V421.846H83.9138ZM100.085 427.852H98.1487C97.21 427.852 96.506 428.035 96.0367 428.402C95.5673 428.769 95.3327 429.231 95.3327 429.788C95.3327 430.345 95.516 430.8 95.8827 431.152C96.2493 431.489 96.7847 431.658 97.4887 431.658C98.2807 431.658 98.9113 431.438 99.3807 430.998C99.85 430.543 100.085 429.971 100.085 429.282V427.852ZM94.3207 424.178V422.44C95.1567 421.927 96.2567 421.67 97.6207 421.67C100.422 421.67 101.823 423.093 101.823 425.938V433H100.107V431.68C99.5347 432.633 98.4933 433.11 96.9827 433.11C95.9413 433.11 95.098 432.802 94.4527 432.186C93.822 431.57 93.5067 430.793 93.5067 429.854C93.5067 428.783 93.91 427.955 94.7167 427.368C95.538 426.767 96.6527 426.466 98.0607 426.466H100.085V425.894C100.085 425.014 99.8867 424.354 99.4907 423.914C99.0947 423.459 98.4273 423.232 97.4887 423.232C96.3007 423.232 95.2447 423.547 94.3207 424.178ZM104.995 433V417.446H106.733V433H104.995ZM21.2868 454.846V456.65C21.9028 455.345 22.9515 454.692 24.4328 454.692C26.1488 454.692 27.2342 455.418 27.6888 456.87C28.0115 456.166 28.4588 455.631 29.0308 455.264C29.6175 454.883 30.2702 454.692 30.9888 454.692C32.1475 454.692 33.0202 455.022 33.6068 455.682C34.1935 456.342 34.4868 457.229 34.4868 458.344V466H32.7488V458.784C32.7488 457.097 32.0375 456.254 30.6148 456.254C29.9108 456.254 29.2802 456.577 28.7228 457.222C28.1655 457.853 27.8868 458.747 27.8868 459.906V466H26.1488V458.784C26.1488 457.097 25.4375 456.254 24.0148 456.254C23.3108 456.254 22.6802 456.577 22.1228 457.222C21.5655 457.853 21.2868 458.747 21.2868 459.906V466H19.5708V454.846H21.2868ZM43.5808 460.852H41.6448C40.7061 460.852 40.0021 461.035 39.5328 461.402C39.0634 461.769 38.8288 462.231 38.8288 462.788C38.8288 463.345 39.0121 463.8 39.3788 464.152C39.7454 464.489 40.2808 464.658 40.9848 464.658C41.7768 464.658 42.4074 464.438 42.8768 463.998C43.3461 463.543 43.5808 462.971 43.5808 462.282V460.852ZM37.8168 457.178V455.44C38.6528 454.927 39.7528 454.67 41.1168 454.67C43.9181 454.67 45.3188 456.093 45.3188 458.938V466H43.6028V464.68C43.0308 465.633 41.9894 466.11 40.4788 466.11C39.4374 466.11 38.5941 465.802 37.9488 465.186C37.3181 464.57 37.0028 463.793 37.0028 462.854C37.0028 461.783 37.4061 460.955 38.2128 460.368C39.0341 459.767 40.1488 459.466 41.5568 459.466H43.5808V458.894C43.5808 458.014 43.3828 457.354 42.9868 456.914C42.5908 456.459 41.9234 456.232 40.9848 456.232C39.7968 456.232 38.7408 456.547 37.8168 457.178ZM50.1189 454.846V456.804C50.7055 455.425 51.7175 454.736 53.1549 454.736C53.4189 454.736 53.6242 454.751 53.7709 454.78V456.496C53.4629 456.393 53.1475 456.342 52.8249 456.342C52.0475 456.342 51.4022 456.701 50.8889 457.42C50.3755 458.139 50.1189 458.967 50.1189 459.906V466H48.3809L48.4029 454.846H50.1189ZM55.5787 466V450.534H57.2947V466H55.5787ZM59.5607 460.148L64.0927 466H62.0027L57.5147 460.148L61.8927 454.846H63.9607L59.5607 460.148ZM73.255 459.708V459.268C73.255 458.344 73.0056 457.611 72.507 457.068C72.0083 456.511 71.319 456.232 70.439 456.232C69.603 456.232 68.8916 456.533 68.305 457.134C67.7183 457.735 67.3736 458.593 67.271 459.708H73.255ZM74.289 463.8V465.428C73.4236 465.883 72.3676 466.11 71.121 466.11C69.4343 466.11 68.0703 465.597 67.029 464.57C66.0023 463.529 65.489 462.157 65.489 460.456C65.489 458.681 65.951 457.281 66.875 456.254C67.799 455.227 68.987 454.714 70.439 454.714C71.8323 454.714 72.9396 455.161 73.761 456.056C74.5823 456.951 74.993 458.219 74.993 459.862C74.993 460.331 74.9563 460.764 74.883 461.16H67.271C67.403 462.26 67.821 463.103 68.525 463.69C69.229 464.277 70.153 464.57 71.297 464.57C72.5436 464.57 73.541 464.313 74.289 463.8ZM80.0411 456.254V462.788C80.0411 463.976 80.5984 464.57 81.7131 464.57C82.2851 464.57 82.7911 464.401 83.2311 464.064V465.714C82.7471 465.978 82.2044 466.11 81.6031 466.11C79.4031 466.11 78.3031 464.988 78.3031 462.744V456.254H76.5211V454.846H78.3031V452.074H80.0411V454.846H83.1211V456.254H80.0411ZM91.8362 455.22V456.87C91.1615 456.459 90.2375 456.254 89.0642 456.254C88.4775 456.254 88.0082 456.393 87.6562 456.672C87.3189 456.936 87.1502 457.281 87.1502 457.706C87.1502 457.97 87.2015 458.205 87.3042 458.41C87.4069 458.601 87.6049 458.791 87.8982 458.982C88.2062 459.173 88.4262 459.305 88.5582 459.378C88.7049 459.437 89.0129 459.569 89.4822 459.774C90.4209 460.155 91.1542 460.588 91.6822 461.072C92.2102 461.556 92.4742 462.209 92.4742 463.03C92.4742 463.983 92.1369 464.739 91.4622 465.296C90.8022 465.853 89.8929 466.132 88.7342 466.132C87.3849 466.132 86.2922 465.905 85.4562 465.45V463.756C86.4389 464.343 87.4949 464.636 88.6242 464.636C89.2989 464.636 89.8122 464.504 90.1642 464.24C90.5162 463.976 90.6922 463.617 90.6922 463.162C90.6922 462.634 90.4942 462.223 90.0982 461.93C89.7169 461.637 89.0715 461.307 88.1622 460.94C87.3262 460.617 86.6515 460.214 86.1382 459.73C85.6395 459.246 85.3902 458.593 85.3902 457.772C85.3902 456.848 85.7349 456.115 86.4242 455.572C87.1282 455.015 88.0009 454.736 89.0422 454.736C90.2009 454.736 91.1322 454.897 91.8362 455.22ZM95.1166 450.446C96.1579 451.795 96.9793 453.321 97.5806 455.022C98.1819 456.723 98.4826 458.469 98.4826 460.258C98.4826 463.954 97.3019 467.305 94.9406 470.312H93.0046C95.4246 467.188 96.6346 463.866 96.6346 460.346C96.6346 456.826 95.4833 453.526 93.1806 450.446H95.1166ZM41.0913 488.55V486.68L44.5013 484.612H46.1293V499H44.4133V486.504L41.0913 488.55ZM51.0406 497.482H57.7286V499H48.6426V497.526C53.1893 494.094 55.4626 491.234 55.4626 488.946C55.4626 488.037 55.1986 487.34 54.6706 486.856C54.1426 486.357 53.4313 486.108 52.5366 486.108C51.378 486.108 50.234 486.541 49.1046 487.406V485.668C50.146 484.861 51.3413 484.458 52.6906 484.458C53.9813 484.458 55.0666 484.832 55.9466 485.58C56.8266 486.328 57.2666 487.391 57.2666 488.77C57.2666 491.366 55.1913 494.27 51.0406 497.482ZM63.2097 499.022L71.0637 484.37H72.7577L64.8597 499.022H63.2097ZM69.2817 495.678C69.2817 494.71 69.6191 493.889 70.2937 493.214C70.9684 492.525 71.7897 492.18 72.7577 492.18C73.7111 492.18 74.5251 492.525 75.1997 493.214C75.8891 493.903 76.2337 494.725 76.2337 495.678C76.2337 496.631 75.8891 497.453 75.1997 498.142C74.5251 498.817 73.7111 499.154 72.7577 499.154C71.7897 499.154 70.9684 498.817 70.2937 498.142C69.6191 497.453 69.2817 496.631 69.2817 495.678ZM59.7557 487.67C59.7557 486.717 60.0931 485.903 60.7677 485.228C61.4571 484.539 62.2784 484.194 63.2317 484.194C64.1851 484.194 65.0064 484.539 65.6957 485.228C66.3851 485.903 66.7297 486.717 66.7297 487.67C66.7297 488.638 66.3851 489.467 65.6957 490.156C65.0064 490.831 64.1851 491.168 63.2317 491.168C62.2784 491.168 61.4571 490.831 60.7677 490.156C60.0931 489.467 59.7557 488.638 59.7557 487.67ZM61.8457 486.284C61.4644 486.665 61.2737 487.127 61.2737 487.67C61.2737 488.213 61.4644 488.682 61.8457 489.078C62.2271 489.459 62.6891 489.65 63.2317 489.65C63.7744 489.65 64.2364 489.459 64.6177 489.078C65.0137 488.682 65.2117 488.213 65.2117 487.67C65.2117 487.127 65.0137 486.665 64.6177 486.284C64.2364 485.903 63.7744 485.712 63.2317 485.712C62.6891 485.712 62.2271 485.903 61.8457 486.284ZM71.3497 494.292C70.9684 494.673 70.7777 495.135 70.7777 495.678C70.7777 496.221 70.9684 496.683 71.3497 497.064C71.7457 497.445 72.2151 497.636 72.7577 497.636C73.3004 497.636 73.7624 497.445 74.1437 497.064C74.5397 496.683 74.7377 496.221 74.7377 495.678C74.7377 495.135 74.5471 494.673 74.1657 494.292C73.7844 493.896 73.3151 493.698 72.7577 493.698C72.2151 493.698 71.7457 493.896 71.3497 494.292Z" fill="#424040"/>
<path d="M6.59732 22V7.172H8.84132L12.5593 13.42L16.3213 19.844C16.2627 18.4213 16.2333 16.2873 16.2333 13.442V7.172H18.0153V22H15.7713L12.0533 15.796C11.3053 14.5493 10.616 13.3907 9.98532 12.32C9.35465 11.2347 8.90732 10.4573 8.64332 9.988L8.26932 9.306C8.34265 10.8313 8.37932 12.98 8.37932 15.752V22H6.59732ZM25.8441 22.198C24.2454 22.198 22.9767 21.6627 22.0381 20.592C21.1141 19.5067 20.6521 18.1427 20.6521 16.5C20.6521 14.8427 21.1287 13.464 22.0821 12.364C23.0501 11.2493 24.3041 10.692 25.8441 10.692C27.5307 10.692 28.8287 11.2347 29.7381 12.32C30.6621 13.4053 31.1241 14.784 31.1241 16.456C31.1241 18.1133 30.6547 19.4847 29.7161 20.57C28.7774 21.6553 27.4867 22.198 25.8441 22.198ZM25.8441 12.232C24.7881 12.232 23.9594 12.6427 23.3581 13.464C22.7567 14.2853 22.4561 15.29 22.4561 16.478C22.4561 17.6367 22.7641 18.6267 23.3801 19.448C23.9961 20.2547 24.8174 20.658 25.8441 20.658C26.9587 20.658 27.8167 20.262 28.4181 19.47C29.0194 18.6633 29.3201 17.666 29.3201 16.478C29.3201 15.246 29.0341 14.234 28.4621 13.442C27.8901 12.6353 27.0174 12.232 25.8441 12.232ZM35.3816 10.846V12.782C36.0416 11.3887 37.2149 10.692 38.9016 10.692C39.9869 10.692 40.8522 11.022 41.4976 11.682C42.1429 12.342 42.4656 13.222 42.4656 14.322V22H40.7276V14.784C40.7276 13.9627 40.5149 13.3393 40.0896 12.914C39.6789 12.474 39.1362 12.254 38.4616 12.254C37.6256 12.254 36.8996 12.5767 36.2836 13.222C35.6822 13.8673 35.3816 14.762 35.3816 15.906V22H33.6656V10.846H35.3816ZM45.1944 16.852V15.334H50.3424V16.852H45.1944ZM63.648 20.592C64.5426 20.592 65.2833 20.218 65.87 19.47C66.4566 18.722 66.75 17.7467 66.75 16.544C66.75 15.1653 66.442 14.1093 65.826 13.376C65.2246 12.628 64.462 12.254 63.538 12.254C62.746 12.254 62.02 12.584 61.36 13.244C60.7 13.904 60.37 14.938 60.37 16.346C60.37 17.8273 60.6853 18.9053 61.316 19.58C61.9613 20.2547 62.7386 20.592 63.648 20.592ZM60.37 6.446V12.518C61.1766 11.286 62.306 10.67 63.758 10.67C65.166 10.67 66.3173 11.2127 67.212 12.298C68.1066 13.3687 68.554 14.7767 68.554 16.522C68.554 18.0913 68.1286 19.426 67.278 20.526C66.442 21.626 65.2833 22.176 63.802 22.176C62.306 22.176 61.162 21.5673 60.37 20.35V22H58.632V6.446H60.37ZM77.1188 16.852H75.1828C74.2442 16.852 73.5402 17.0353 73.0708 17.402C72.6015 17.7687 72.3668 18.2307 72.3668 18.788C72.3668 19.3453 72.5502 19.8 72.9168 20.152C73.2835 20.4893 73.8188 20.658 74.5228 20.658C75.3148 20.658 75.9455 20.438 76.4148 19.998C76.8842 19.5433 77.1188 18.9713 77.1188 18.282V16.852ZM71.3548 13.178V11.44C72.1908 10.9267 73.2908 10.67 74.6548 10.67C77.4562 10.67 78.8568 12.0927 78.8568 14.938V22H77.1408V20.68C76.5688 21.6333 75.5275 22.11 74.0168 22.11C72.9755 22.11 72.1322 21.802 71.4868 21.186C70.8562 20.57 70.5408 19.7927 70.5408 18.854C70.5408 17.7833 70.9442 16.9547 71.7508 16.368C72.5722 15.7667 73.6868 15.466 75.0948 15.466H77.1188V14.894C77.1188 14.014 76.9208 13.354 76.5248 12.914C76.1288 12.4593 75.4615 12.232 74.5228 12.232C73.3348 12.232 72.2788 12.5473 71.3548 13.178ZM84.339 12.254V18.788C84.339 19.976 84.8963 20.57 86.011 20.57C86.583 20.57 87.089 20.4013 87.529 20.064V21.714C87.045 21.978 86.5023 22.11 85.901 22.11C83.701 22.11 82.601 20.988 82.601 18.744V12.254H80.819V10.846H82.601V8.074H84.339V10.846H87.419V12.254H84.339ZM92.4601 12.254V18.788C92.4601 19.976 93.0174 20.57 94.1321 20.57C94.7041 20.57 95.2101 20.4013 95.6501 20.064V21.714C95.1661 21.978 94.6234 22.11 94.0221 22.11C91.8221 22.11 90.7221 20.988 90.7221 18.744V12.254H88.9401V10.846H90.7221V8.074H92.4601V10.846H95.5401V12.254H92.4601ZM105.289 15.708V15.268C105.289 14.344 105.04 13.6107 104.541 13.068C104.042 12.5107 103.353 12.232 102.473 12.232C101.637 12.232 100.926 12.5327 100.339 13.134C99.7525 13.7353 99.4078 14.5933 99.3051 15.708H105.289ZM106.323 19.8V21.428C105.458 21.8827 104.402 22.11 103.155 22.11C101.468 22.11 100.104 21.5967 99.0631 20.57C98.0365 19.5287 97.5231 18.1573 97.5231 16.456C97.5231 14.6813 97.9851 13.2807 98.9091 12.254C99.8331 11.2273 101.021 10.714 102.473 10.714C103.866 10.714 104.974 11.1613 105.795 12.056C106.616 12.9507 107.027 14.2193 107.027 15.862C107.027 16.3313 106.99 16.764 106.917 17.16H99.3051C99.4371 18.26 99.8551 19.1033 100.559 19.69C101.263 20.2767 102.187 20.57 103.331 20.57C104.578 20.57 105.575 20.3133 106.323 19.8ZM111.393 10.846V12.804C111.98 11.4253 112.992 10.736 114.429 10.736C114.693 10.736 114.899 10.7507 115.045 10.78V12.496C114.737 12.3933 114.422 12.342 114.099 12.342C113.322 12.342 112.677 12.7013 112.163 13.42C111.65 14.1387 111.393 14.9673 111.393 15.906V22H109.655L109.677 10.846H111.393ZM119.933 21.714L115.423 10.846H117.381L118.833 14.52L120.791 19.58C120.908 19.1987 121.495 17.512 122.551 14.52L123.849 10.846H125.719L121.693 21.714C121.121 23.2247 120.439 24.288 119.647 24.904C118.87 25.52 117.975 25.828 116.963 25.828C116.582 25.828 116.274 25.7913 116.039 25.718V24.156C116.259 24.2147 116.508 24.244 116.787 24.244C118.268 24.244 119.317 23.4007 119.933 21.714ZM30.0805 53.592C30.9898 53.592 31.7598 53.2547 32.3905 52.58C33.0358 51.9053 33.3585 50.8273 33.3585 49.346C33.3585 47.938 33.0285 46.904 32.3685 46.244C31.7085 45.584 30.9825 45.254 30.1905 45.254C29.2665 45.254 28.4965 45.628 27.8805 46.376C27.2792 47.1093 26.9785 48.1653 26.9785 49.544C26.9785 50.7467 27.2718 51.722 27.8585 52.47C28.4452 53.218 29.1858 53.592 30.0805 53.592ZM33.3585 39.446H35.0965V55H33.3585V53.35C32.5665 54.5673 31.4225 55.176 29.9265 55.176C28.4452 55.176 27.2792 54.626 26.4285 53.526C25.5925 52.426 25.1745 51.0913 25.1745 49.522C25.1745 47.7767 25.6218 46.3687 26.5165 45.298C27.4112 44.2127 28.5625 43.67 29.9705 43.67C31.4225 43.67 32.5518 44.2933 33.3585 45.54V39.446ZM45.4229 48.708V48.268C45.4229 47.344 45.1736 46.6107 44.6749 46.068C44.1763 45.5107 43.4869 45.232 42.6069 45.232C41.7709 45.232 41.0596 45.5327 40.4729 46.134C39.8863 46.7353 39.5416 47.5933 39.4389 48.708H45.4229ZM46.4569 52.8V54.428C45.5916 54.8827 44.5356 55.11 43.2889 55.11C41.6023 55.11 40.2383 54.5967 39.1969 53.57C38.1703 52.5287 37.6569 51.1573 37.6569 49.456C37.6569 47.6813 38.1189 46.2807 39.0429 45.254C39.9669 44.2273 41.1549 43.714 42.6069 43.714C44.0003 43.714 45.1076 44.1613 45.9289 45.056C46.7503 45.9507 47.1609 47.2193 47.1609 48.862C47.1609 49.3313 47.1243 49.764 47.0509 50.16H39.4389C39.5709 51.26 39.9889 52.1033 40.6929 52.69C41.3969 53.2767 42.3209 53.57 43.4649 53.57C44.7116 53.57 45.7089 53.3133 46.4569 52.8ZM51.5271 43.846V45.65C52.1431 44.3447 53.1917 43.692 54.6731 43.692C56.3891 43.692 57.4744 44.418 57.9291 45.87C58.2517 45.166 58.6991 44.6307 59.2711 44.264C59.8577 43.8827 60.5104 43.692 61.2291 43.692C62.3877 43.692 63.2604 44.022 63.8471 44.682C64.4337 45.342 64.7271 46.2293 64.7271 47.344V55H62.9891V47.784C62.9891 46.0973 62.2777 45.254 60.8551 45.254C60.1511 45.254 59.5204 45.5767 58.9631 46.222C58.4057 46.8527 58.1271 47.7473 58.1271 48.906V55H56.3891V47.784C56.3891 46.0973 55.6777 45.254 54.2551 45.254C53.5511 45.254 52.9204 45.5767 52.3631 46.222C51.8057 46.8527 51.5271 47.7473 51.5271 48.906V55H49.8111V43.846H51.5271ZM73.821 49.852H71.885C70.9463 49.852 70.2423 50.0353 69.773 50.402C69.3037 50.7687 69.069 51.2307 69.069 51.788C69.069 52.3453 69.2523 52.8 69.619 53.152C69.9857 53.4893 70.521 53.658 71.225 53.658C72.017 53.658 72.6477 53.438 73.117 52.998C73.5863 52.5433 73.821 51.9713 73.821 51.282V49.852ZM68.057 46.178V44.44C68.893 43.9267 69.993 43.67 71.357 43.67C74.1583 43.67 75.559 45.0927 75.559 47.938V55H73.843V53.68C73.271 54.6333 72.2297 55.11 70.719 55.11C69.6777 55.11 68.8343 54.802 68.189 54.186C67.5583 53.57 67.243 52.7927 67.243 51.854C67.243 50.7833 67.6463 49.9547 68.453 49.368C69.2743 48.7667 70.389 48.466 71.797 48.466H73.821V47.894C73.821 47.014 73.623 46.354 73.227 45.914C72.831 45.4593 72.1637 45.232 71.225 45.232C70.037 45.232 68.981 45.5473 68.057 46.178ZM80.3591 43.846V45.782C81.0191 44.3887 82.1924 43.692 83.8791 43.692C84.9644 43.692 85.8298 44.022 86.4751 44.682C87.1204 45.342 87.4431 46.222 87.4431 47.322V55H85.7051V47.784C85.7051 46.9627 85.4924 46.3393 85.0671 45.914C84.6564 45.474 84.1138 45.254 83.4391 45.254C82.6031 45.254 81.8771 45.5767 81.2611 46.222C80.6598 46.8673 80.3591 47.762 80.3591 48.906V55H78.6431V43.846H80.3591ZM94.77 53.592C95.6793 53.592 96.4493 53.2547 97.08 52.58C97.7253 51.9053 98.048 50.8273 98.048 49.346C98.048 47.938 97.718 46.904 97.058 46.244C96.398 45.584 95.672 45.254 94.88 45.254C93.956 45.254 93.186 45.628 92.57 46.376C91.9686 47.1093 91.668 48.1653 91.668 49.544C91.668 50.7467 91.9613 51.722 92.548 52.47C93.1346 53.218 93.8753 53.592 94.77 53.592ZM98.048 39.446H99.786V55H98.048V53.35C97.256 54.5673 96.112 55.176 94.616 55.176C93.1346 55.176 91.9686 54.626 91.118 53.526C90.282 52.426 89.864 51.0913 89.864 49.522C89.864 47.7767 90.3113 46.3687 91.206 45.298C92.1006 44.2127 93.252 43.67 94.66 43.67C96.112 43.67 97.2413 44.2933 98.048 45.54V39.446ZM46.3551 75.966V74.272C47.2058 73.7293 48.1884 73.458 49.3031 73.458C50.7258 73.458 51.8258 73.8247 52.6031 74.558C53.3951 75.2767 53.7911 76.1713 53.7911 77.242C53.7911 78.0193 53.5931 78.716 53.1971 79.332C52.8158 79.948 52.2438 80.41 51.4811 80.718C52.3171 80.9087 52.9771 81.2973 53.4611 81.884C53.9598 82.456 54.2091 83.1747 54.2091 84.04C54.2091 85.2133 53.7984 86.1887 52.9771 86.966C52.1558 87.7433 50.9971 88.132 49.5011 88.132C48.1224 88.132 46.9271 87.89 45.9151 87.406V85.668C47.0004 86.24 48.1811 86.526 49.4571 86.526C50.3958 86.526 51.1218 86.284 51.6351 85.8C52.1631 85.316 52.4271 84.6853 52.4271 83.908C52.4271 83.1307 52.1338 82.5367 51.5471 82.126C50.9751 81.7007 50.1464 81.488 49.0611 81.488H48.1371V79.97H49.0611C49.8824 79.97 50.5718 79.7427 51.1291 79.288C51.7011 78.8187 51.9871 78.1953 51.9871 77.418C51.9871 76.6407 51.7451 76.054 51.2611 75.658C50.7771 75.262 50.1098 75.064 49.2591 75.064C48.2471 75.064 47.2791 75.3647 46.3551 75.966ZM56.2731 80.762C56.2731 78.5033 56.7278 76.7213 57.6371 75.416C58.5611 74.096 59.7711 73.436 61.2671 73.436C62.8218 73.436 64.0538 74.096 64.9631 75.416C65.8871 76.7213 66.3491 78.5033 66.3491 80.762C66.3491 83.006 65.9091 84.8027 65.0291 86.152C64.1491 87.5013 62.8951 88.176 61.2671 88.176C59.7565 88.176 58.5465 87.5013 57.6371 86.152C56.7278 84.8027 56.2731 83.006 56.2731 80.762ZM59.0011 76.582C58.3705 77.5647 58.0551 78.958 58.0551 80.762C58.0551 82.566 58.3631 83.9813 58.9791 85.008C59.5951 86.02 60.3578 86.526 61.2671 86.526C62.2791 86.526 63.0785 86.0273 63.6651 85.03C64.2665 84.0327 64.5671 82.61 64.5671 80.762C64.5671 78.9287 64.2518 77.528 63.6211 76.56C63.0051 75.5773 62.2205 75.086 61.2671 75.086C60.3871 75.086 59.6318 75.5847 59.0011 76.582ZM71.8259 88.022L79.6799 73.37H81.3739L73.4759 88.022H71.8259ZM77.8979 84.678C77.8979 83.71 78.2353 82.8887 78.9099 82.214C79.5846 81.5247 80.4059 81.18 81.3739 81.18C82.3273 81.18 83.1413 81.5247 83.8159 82.214C84.5053 82.9033 84.8499 83.7247 84.8499 84.678C84.8499 85.6313 84.5053 86.4527 83.8159 87.142C83.1413 87.8167 82.3273 88.154 81.3739 88.154C80.4059 88.154 79.5846 87.8167 78.9099 87.142C78.2353 86.4527 77.8979 85.6313 77.8979 84.678ZM68.3719 76.67C68.3719 75.7167 68.7093 74.9027 69.3839 74.228C70.0733 73.5387 70.8946 73.194 71.8479 73.194C72.8013 73.194 73.6226 73.5387 74.3119 74.228C75.0013 74.9027 75.3459 75.7167 75.3459 76.67C75.3459 77.638 75.0013 78.4667 74.3119 79.156C73.6226 79.8307 72.8013 80.168 71.8479 80.168C70.8946 80.168 70.0733 79.8307 69.3839 79.156C68.7093 78.4667 68.3719 77.638 68.3719 76.67ZM70.4619 75.284C70.0806 75.6653 69.8899 76.1273 69.8899 76.67C69.8899 77.2127 70.0806 77.682 70.4619 78.078C70.8433 78.4593 71.3053 78.65 71.8479 78.65C72.3906 78.65 72.8526 78.4593 73.2339 78.078C73.6299 77.682 73.8279 77.2127 73.8279 76.67C73.8279 76.1273 73.6299 75.6653 73.2339 75.284C72.8526 74.9027 72.3906 74.712 71.8479 74.712C71.3053 74.712 70.8433 74.9027 70.4619 75.284ZM79.9659 83.292C79.5846 83.6733 79.3939 84.1353 79.3939 84.678C79.3939 85.2207 79.5846 85.6827 79.9659 86.064C80.3619 86.4453 80.8313 86.636 81.3739 86.636C81.9166 86.636 82.3786 86.4453 82.7599 86.064C83.1559 85.6827 83.3539 85.2207 83.3539 84.678C83.3539 84.1353 83.1633 83.6733 82.7819 83.292C82.4006 82.896 81.9313 82.698 81.3739 82.698C80.8313 82.698 80.3619 82.896 79.9659 83.292Z" fill="#424040"/>
<circle cx="238.5" cy="230.5" r="197.5" fill="#FF8826"/>
<path d="M63.6474 322.33C47.8879 292.323 40.1162 258.765 41.0798 224.885C42.0435 191.004 51.7102 157.942 69.1499 128.879C86.5895 99.8162 111.215 75.7304 140.658 58.9392C170.1 42.1479 203.368 33.2164 237.262 33.0039L238.5 230.5L63.6474 322.33Z" fill="#595959"/>
<path d="M63.6474 322.33C84.0811 361.238 116.908 392.219 156.931 410.369L238.5 230.5L63.6474 322.33Z" fill="#BFBFBF"/>
<path d="M157.021 410.409C180.647 421.109 206.149 427.051 232.071 427.895C257.994 428.74 283.829 424.47 308.101 415.33L238.5 230.5L157.021 410.409Z" fill="#FFA860"/>
<path d="M307.655 415.497C336.921 404.557 363.173 386.83 384.256 363.772L238.5 230.5L307.655 415.497Z" fill="#FF943C"/>
</svg>
