<svg width="113" height="32" viewBox="0 0 113 32" fill="none" xmlns="http://www.w3.org/2000/svg">
<path fill-rule="evenodd" clip-rule="evenodd" d="M1.04681 9.30713C1.36734 11.4316 2.77401 12.5729 4.58319 13.3181C6.02002 13.9596 7.62532 14.1208 9.16103 13.778C8.35742 13.0324 7.6963 12.4174 6.93456 11.7102C7.20689 11.6694 7.37648 11.6321 7.54818 11.6205C9.10016 11.5188 10.6528 11.3805 12.2076 11.333C13.7423 11.2956 15.2116 10.7042 16.3443 9.66812C16.7563 10.3905 17.1313 11.0403 17.5054 11.6954C17.9666 12.5047 18.2516 13.556 18.9377 14.0581C19.5942 14.5394 20.6723 14.4282 21.5554 14.6186C24.6942 15.2372 27.6341 16.6142 30.1186 18.6296C30.3684 18.8382 30.5918 19.0813 30.8965 19.3758C29.4307 20.0827 28.0399 20.7336 26.7912 21.8299C28.7056 22.0428 29.0676 22.1751 30.8423 22.3739C30.8423 22.4573 31.071 22.8665 30.6523 23.0962C29.3414 23.4006 29.632 23.3045 28.3196 23.6085C27.8056 23.7271 27.2919 23.8386 26.7789 23.9604C23.8765 24.6348 21.3053 23.1198 20.5931 20.221C20.4112 19.4796 20.1203 19.3484 19.432 19.4138C14.9072 19.8871 10.3368 19.1842 6.16332 17.3731C3.68704 16.2976 1.62454 14.7917 0.877572 11.9966C0.615381 11.1082 0.675316 10.1557 1.04681 9.30713Z" fill="#FF6A00"/>
<path d="M26.2136 25.6575C23.2912 26.2352 20.7713 24.6336 20.1584 21.7126C20.0018 20.9646 19.7168 20.8238 19.0244 20.8682C17.188 20.9857 15.3444 20.9207 13.5209 20.6743L3.46094 25.6863C5.03943 27.7134 7.07279 29.3406 9.39662 30.4363C11.7204 31.532 14.2695 32.0654 16.8377 31.9935C19.4059 31.9215 21.9211 31.2462 24.1799 30.0222C26.4388 28.7982 28.3779 27.0597 29.8404 24.9475C29.1482 25.0854 28.4563 25.2221 27.7645 25.3577C27.2487 25.4626 26.7305 25.5554 26.2136 25.6575Z" fill="#8DA2BD"/>
<path d="M0.620806 20.099L4.96173 17.936C2.9241 16.8182 1.30236 15.3024 0.730234 12.8274C0.536913 12.0684 0.572912 11.2692 0.833682 10.5307C0.830516 10.5209 0.828052 10.5107 0.825589 10.5005C-0.200435 13.6076 -0.271764 16.9509 0.620806 20.099Z" fill="#8DA2BD"/>
<path d="M5.98109 18.4473L0.898438 20.9814C1.25971 22.02 1.7239 23.0199 2.28407 23.9662C2.48323 24.3026 2.6954 24.6249 2.91426 24.9419L11.9923 20.4177C9.91582 20.0081 7.89713 19.3464 5.98109 18.4473Z" fill="#8DA2BD"/>
<path d="M27.4155 4.57654C21.4426 -1.67467 11.1163 -1.50015 4.34965 4.96673C4.31447 4.99945 4.28245 5.03358 4.24902 5.06841L4.29371 5.07897C5.25635 4.58639 17.1758 -1.25422 25.5609 5.75908C25.5609 5.75908 19.1049 1.00075 6.93676 5.75381L13.9687 7.54821C15.4455 7.01879 17.0078 6.76825 18.5761 6.80934L16.9045 3.98051L20.4701 6.99792C23.2146 7.47888 25.7342 8.82271 27.6625 10.834C29.5908 12.8453 30.8272 15.4193 31.1922 18.1816C32.1442 13.3132 30.9216 8.24556 27.4155 4.57654Z" fill="white"/>
<path d="M51.9407 25.3162H49.8721V17.9975H41.7891V25.3162H39.7314V9.76562H41.7891V16.1512H49.8721V9.76562H51.9407V25.3162Z" fill="#FF6A00"/>
<path d="M59.5035 25.5809C57.8486 25.5809 56.5191 25.0629 55.5151 24.027C54.5111 22.9912 54.009 21.5468 54.0088 19.6939C54.0088 17.855 54.4951 16.4141 55.4676 15.3712C55.9544 14.8529 56.5466 14.4451 57.2044 14.1752C57.8622 13.9054 58.5703 13.7797 59.2807 13.8068C60.8864 13.8068 62.1681 14.3195 63.1259 15.3448C64.0837 16.3702 64.5627 17.8198 64.5629 19.6939V20.171H56.0879C56.1726 21.4724 56.5315 22.4378 57.1646 23.0672C57.4698 23.3754 57.8346 23.6181 58.2367 23.7804C58.6389 23.9427 59.0699 24.0212 59.5035 24.0112C60.1732 24.0199 60.831 23.8338 61.3969 23.4753C61.6624 23.3186 61.8833 23.0963 62.0384 22.8298C62.1936 22.5633 62.2777 22.2615 62.2828 21.9532H64.3514C64.2973 22.4874 64.1285 23.0037 63.8566 23.4669C63.5848 23.93 63.2162 24.3291 62.7762 24.6368C61.8114 25.2872 60.6664 25.6174 59.5035 25.5809ZM62.4524 18.6013C62.3701 17.6929 61.9861 16.8383 61.3617 16.1735C60.7975 15.6559 60.0599 15.3683 59.2943 15.3673C58.5286 15.3663 57.7903 15.652 57.2248 16.1682C56.652 16.7023 56.2884 17.5138 56.134 18.6027L62.4524 18.6013Z" fill="#FF6A00"/>
<path d="M68.8044 25.3162H66.7988V9.76562H68.8044V25.3162Z" fill="#FF6A00"/>
<path d="M73.7585 11.9296H71.7529V9.76562H73.7585V11.9296ZM73.7585 25.3162H71.7529V14.0615H73.7585V25.3162Z" fill="#FF6A00"/>
<path d="M81.2688 13.8068C82.874 13.8068 84.1556 14.3194 85.1136 15.3448C86.0716 16.3701 86.5507 17.8198 86.5509 19.6938C86.5509 21.5608 86.0718 23.0087 85.1136 24.0375C84.1553 25.0664 82.8737 25.5808 81.2688 25.5808C80.5563 25.6127 79.8453 25.4914 79.1837 25.2252C78.5221 24.959 77.9253 24.554 77.4335 24.0375C76.475 23.0087 75.9959 21.5608 75.9961 19.6938C75.9961 17.8202 76.4752 16.3705 77.4335 15.3448C77.9261 14.8298 78.5233 14.4261 79.1847 14.1609C79.8462 13.8956 80.5568 13.7749 81.2688 13.8068ZM81.2688 24.0108C81.7137 24.0227 82.1554 23.9306 82.5585 23.7419C82.9617 23.5531 83.3152 23.2729 83.5911 22.9235C84.185 22.1987 84.482 21.122 84.482 19.6934C84.482 18.2578 84.185 17.1776 83.5911 16.4528C83.3071 16.1125 82.9518 15.8388 82.5503 15.6509C82.1489 15.4631 81.7111 15.3657 81.2679 15.3657C80.8247 15.3657 80.3869 15.4631 79.9854 15.6509C79.584 15.8388 79.2287 16.1125 78.9447 16.4528C78.3508 17.1778 78.0538 18.2581 78.0538 19.6934C78.0538 21.122 78.3508 22.1987 78.9447 22.9235C79.2207 23.2732 79.5745 23.5536 79.978 23.7424C80.3815 23.9312 80.8235 24.0232 81.2688 24.0111V24.0108Z" fill="#FF6A00"/>
<path d="M92.8086 25.5811C89.7324 25.5811 88.1236 24.3719 87.9824 21.9534H89.988C90.0021 23.3255 90.9356 24.0115 92.7885 24.0115C93.4594 24.0565 94.126 23.8754 94.6819 23.497C94.8853 23.3496 95.0507 23.1558 95.1641 22.9316C95.2776 22.7074 95.3359 22.4594 95.3342 22.2082C95.3497 21.9854 95.2971 21.7632 95.1835 21.5709C95.07 21.3787 94.9007 21.2254 94.6981 21.1315C93.8476 20.7864 92.9692 20.5149 92.0725 20.3197C91.0498 20.1081 90.0683 19.732 89.1661 19.2061C88.5541 18.796 88.2482 18.0747 88.2484 17.0421C88.2428 16.5934 88.3431 16.1496 88.5413 15.747C88.7394 15.3443 89.0298 14.9941 89.3888 14.7248C90.2684 14.0749 91.3463 13.7505 92.4384 13.8071C95.3875 13.8071 96.8937 14.8572 96.957 16.9573H94.9627C94.8923 15.8968 94.0969 15.3664 92.5763 15.3662C91.9954 15.3445 91.4191 15.4763 90.9053 15.7483C90.701 15.8525 90.5303 16.0123 90.413 16.2094C90.2957 16.4065 90.2366 16.6327 90.2424 16.862C90.2288 17.0523 90.2695 17.2426 90.3596 17.4108C90.4498 17.5789 90.5859 17.718 90.7519 17.812C91.5723 18.1628 92.4273 18.426 93.3029 18.5974C94.3707 18.8111 95.3958 19.1998 96.3367 19.748C96.9977 20.1868 97.3282 20.9436 97.3282 22.0182C97.3354 22.5092 97.2286 22.9952 97.016 23.438C96.8035 23.8807 96.4911 24.268 96.1034 24.5695C95.285 25.2442 94.1867 25.5814 92.8086 25.5811Z" fill="#FF6A00"/>
<path d="M112.994 25.3162H110.469L105.865 18.729L101.24 25.3162H98.7158L104.688 17.1269L99.3087 9.76562H101.823L105.843 15.5147L109.886 9.76562H112.398L107 17.1269L112.994 25.3162Z" fill="white"/>
</svg>
