<svg width="58" height="47" viewBox="0 0 58 47" fill="none" xmlns="http://www.w3.org/2000/svg">
<path d="M18.586 47C40.0965 47 51.8598 28.9196 51.8598 13.2409C51.8598 12.7274 51.8495 12.2162 51.8267 11.7072C54.1154 10.027 56.0908 7.94646 57.6602 5.56319C55.5648 6.50827 53.3099 7.14441 50.9446 7.43124C53.3588 5.96218 55.2124 3.63867 56.0869 0.868624C53.7912 2.2504 51.2798 3.22442 48.661 3.74871C46.5269 1.44247 43.489 0 40.1247 0C33.6665 0 28.4295 5.31363 28.4295 11.8634C28.4295 12.7945 28.5322 13.7002 28.7329 14.5689C19.0133 14.0726 10.3948 9.35129 4.62677 2.17214C3.58791 3.98272 3.04145 6.04066 3.04322 8.13568C3.04322 12.2521 5.10782 15.8862 8.24737 18.0121C6.3903 17.9546 4.57397 17.4457 2.95103 16.5281C2.94931 16.578 2.94931 16.6265 2.94931 16.6797C2.94931 22.4259 6.98038 27.2235 12.3314 28.3106C11.3264 28.5884 10.2894 28.7288 9.24772 28.7282C8.51005 28.7277 7.7741 28.6561 7.04981 28.5142C8.53867 33.2285 12.8559 36.6592 17.9743 36.7551C13.9718 39.9381 8.92964 41.8339 3.44968 41.8339C2.50689 41.8339 1.57559 41.7795 0.660156 41.6697C5.8358 45.0355 11.9814 46.9994 18.5866 46.9994" fill="black"/>
</svg>
